<svg xmlns="http://www.w3.org/2000/svg" xmlns:xlink="http://www.w3.org/1999/xlink" contentStyleType="text/css" height="849px" preserveAspectRatio="none" style="width:952px;height:849px;background:#FFFFFF;" version="1.1" viewBox="0 0 952 849" width="952px" zoomAndPan="magnify"><defs/><g><line style="stroke:#181818;stroke-width:0.5;stroke-dasharray:5.0,5.0;" x1="33" x2="33" y1="36.2969" y2="813.75"/><line style="stroke:#181818;stroke-width:0.5;stroke-dasharray:5.0,5.0;" x1="122.1216" x2="122.1216" y1="36.2969" y2="813.75"/><line style="stroke:#181818;stroke-width:0.5;stroke-dasharray:5.0,5.0;" x1="302.4673" x2="302.4673" y1="36.2969" y2="813.75"/><line style="stroke:#181818;stroke-width:0.5;stroke-dasharray:5.0,5.0;" x1="538.6196" x2="538.6196" y1="36.2969" y2="813.75"/><line style="stroke:#181818;stroke-width:0.5;stroke-dasharray:5.0,5.0;" x1="655.3335" x2="655.3335" y1="36.2969" y2="813.75"/><line style="stroke:#181818;stroke-width:0.5;stroke-dasharray:5.0,5.0;" x1="773.1963" x2="773.1963" y1="36.2969" y2="813.75"/><line style="stroke:#181818;stroke-width:0.5;stroke-dasharray:5.0,5.0;" x1="921.7861" x2="921.7861" y1="36.2969" y2="813.75"/><rect fill="#E2E2F0" height="30.2969" rx="2.5" ry="2.5" style="stroke:#181818;stroke-width:0.5;" width="57.8115" x="5" y="5"/><text fill="#000000" font-family="sans-serif" font-size="14" lengthAdjust="spacing" textLength="43.8115" x="12" y="24.9951">phone</text><rect fill="#E2E2F0" height="30.2969" rx="2.5" ry="2.5" style="stroke:#181818;stroke-width:0.5;" width="57.8115" x="5" y="812.75"/><text fill="#000000" font-family="sans-serif" font-size="14" lengthAdjust="spacing" textLength="43.8115" x="12" y="832.7451">phone</text><rect fill="#E2E2F0" height="30.2969" rx="2.5" ry="2.5" style="stroke:#181818;stroke-width:0.5;" width="69.0225" x="88.1216" y="5"/><text fill="#000000" font-family="sans-serif" font-size="14" lengthAdjust="spacing" textLength="55.0225" x="95.1216" y="24.9951">asterisk</text><rect fill="#E2E2F0" height="30.2969" rx="2.5" ry="2.5" style="stroke:#181818;stroke-width:0.5;" width="69.0225" x="88.1216" y="812.75"/><text fill="#000000" font-family="sans-serif" font-size="14" lengthAdjust="spacing" textLength="55.0225" x="95.1216" y="832.7451">asterisk</text><rect fill="#E2E2F0" height="30.2969" rx="2.5" ry="2.5" style="stroke:#181818;stroke-width:0.5;" width="44.2422" x="280.4673" y="5"/><text fill="#000000" font-family="sans-serif" font-size="14" lengthAdjust="spacing" textLength="30.2422" x="287.4673" y="24.9951">agid</text><rect fill="#E2E2F0" height="30.2969" rx="2.5" ry="2.5" style="stroke:#181818;stroke-width:0.5;" width="44.2422" x="280.4673" y="812.75"/><text fill="#000000" font-family="sans-serif" font-size="14" lengthAdjust="spacing" textLength="30.2422" x="287.4673" y="832.7451">agid</text><rect fill="#E2E2F0" height="30.2969" rx="2.5" ry="2.5" style="stroke:#181818;stroke-width:0.5;" width="52.9512" x="512.6196" y="5"/><text fill="#000000" font-family="sans-serif" font-size="14" lengthAdjust="spacing" textLength="38.9512" x="519.6196" y="24.9951">confd</text><rect fill="#E2E2F0" height="30.2969" rx="2.5" ry="2.5" style="stroke:#181818;stroke-width:0.5;" width="52.9512" x="512.6196" y="812.75"/><text fill="#000000" font-family="sans-serif" font-size="14" lengthAdjust="spacing" textLength="38.9512" x="519.6196" y="832.7451">confd</text><rect fill="#E2E2F0" height="30.2969" rx="2.5" ry="2.5" style="stroke:#181818;stroke-width:0.5;" width="45.8145" x="633.3335" y="5"/><text fill="#000000" font-family="sans-serif" font-size="14" lengthAdjust="spacing" textLength="31.8145" x="640.3335" y="24.9951">auth</text><rect fill="#E2E2F0" height="30.2969" rx="2.5" ry="2.5" style="stroke:#181818;stroke-width:0.5;" width="45.8145" x="633.3335" y="812.75"/><text fill="#000000" font-family="sans-serif" font-size="14" lengthAdjust="spacing" textLength="31.8145" x="640.3335" y="832.7451">auth</text><rect fill="#E2E2F0" height="30.2969" rx="2.5" ry="2.5" style="stroke:#181818;stroke-width:0.5;" width="54.3799" x="746.1963" y="5"/><text fill="#000000" font-family="sans-serif" font-size="14" lengthAdjust="spacing" textLength="40.3799" x="753.1963" y="24.9951">provd</text><rect fill="#E2E2F0" height="30.2969" rx="2.5" ry="2.5" style="stroke:#181818;stroke-width:0.5;" width="54.3799" x="746.1963" y="812.75"/><text fill="#000000" font-family="sans-serif" font-size="14" lengthAdjust="spacing" textLength="40.3799" x="753.1963" y="832.7451">provd</text><rect fill="#E2E2F0" height="30.2969" rx="2.5" ry="2.5" style="stroke:#181818;stroke-width:0.5;" width="48.9932" x="897.7861" y="5"/><text fill="#000000" font-family="sans-serif" font-size="14" lengthAdjust="spacing" textLength="34.9932" x="904.7861" y="24.9951">amid</text><rect fill="#E2E2F0" height="30.2969" rx="2.5" ry="2.5" style="stroke:#181818;stroke-width:0.5;" width="48.9932" x="897.7861" y="812.75"/><text fill="#000000" font-family="sans-serif" font-size="14" lengthAdjust="spacing" textLength="34.9932" x="904.7861" y="832.7451">amid</text><polygon fill="#181818" points="110.6328,63.4297,120.6328,67.4297,110.6328,71.4297,114.6328,67.4297" style="stroke:#181818;stroke-width:1;"/><line style="stroke:#181818;stroke-width:1;" x1="33.9058" x2="116.6328" y1="67.4297" y2="67.4297"/><text fill="#000000" font-family="sans-serif" font-size="13" lengthAdjust="spacing" textLength="64.7271" x="40.9058" y="62.3638">prov code</text><polygon fill="#181818" points="290.5884,92.5625,300.5884,96.5625,290.5884,100.5625,294.5884,96.5625" style="stroke:#181818;stroke-width:1;"/><line style="stroke:#181818;stroke-width:1;" x1="122.6328" x2="296.5884" y1="96.5625" y2="96.5625"/><text fill="#000000" font-family="sans-serif" font-size="13" lengthAdjust="spacing" textLength="155.9556" x="129.6328" y="91.4966">device IP and prov code</text><polygon fill="#181818" points="527.0952,121.6953,537.0952,125.6953,527.0952,129.6953,531.0952,125.6953" style="stroke:#181818;stroke-width:1;"/><line style="stroke:#181818;stroke-width:1;" x1="302.5884" x2="533.0952" y1="125.6953" y2="125.6953"/><text fill="#000000" font-family="sans-serif" font-size="13" lengthAdjust="spacing" textLength="163.7378" x="309.5884" y="120.6294">token, get device from IP</text><polygon fill="#181818" points="644.2407,150.8281,654.2407,154.8281,644.2407,158.8281,648.2407,154.8281" style="stroke:#181818;stroke-width:1;"/><line style="stroke:#181818;stroke-width:1;" x1="539.0952" x2="650.2407" y1="154.8281" y2="154.8281"/><text fill="#000000" font-family="sans-serif" font-size="13" lengthAdjust="spacing" textLength="93.1455" x="546.0952" y="149.7622">validate token</text><polygon fill="#181818" points="550.0952,179.9609,540.0952,183.9609,550.0952,187.9609,546.0952,183.9609" style="stroke:#181818;stroke-width:1;"/><line style="stroke:#181818;stroke-width:1;" x1="544.0952" x2="655.2407" y1="183.9609" y2="183.9609"/><text fill="#000000" font-family="sans-serif" font-size="13" lengthAdjust="spacing" textLength="33.7759" x="556.0952" y="178.895">allow</text><polygon fill="#181818" points="313.5884,209.0938,303.5884,213.0938,313.5884,217.0938,309.5884,213.0938" style="stroke:#181818;stroke-width:1;"/><line style="stroke:#181818;stroke-width:1;" x1="307.5884" x2="538.0952" y1="213.0938" y2="213.0938"/><text fill="#000000" font-family="sans-serif" font-size="13" lengthAdjust="spacing" textLength="42.7007" x="319.5884" y="208.0278">device</text><polygon fill="#181818" points="527.0952,238.2266,537.0952,242.2266,527.0952,246.2266,531.0952,242.2266" style="stroke:#181818;stroke-width:1;"/><line style="stroke:#181818;stroke-width:1;" x1="302.5884" x2="533.0952" y1="242.2266" y2="242.2266"/><text fill="#000000" font-family="sans-serif" font-size="13" lengthAdjust="spacing" textLength="197.5518" x="309.5884" y="237.1606">token, get line from prov code</text><polygon fill="#181818" points="644.2407,267.3594,654.2407,271.3594,644.2407,275.3594,648.2407,271.3594" style="stroke:#181818;stroke-width:1;"/><line style="stroke:#181818;stroke-width:1;" x1="539.0952" x2="650.2407" y1="271.3594" y2="271.3594"/><text fill="#000000" font-family="sans-serif" font-size="13" lengthAdjust="spacing" textLength="93.1455" x="546.0952" y="266.2935">validate token</text><polygon fill="#181818" points="550.0952,296.4922,540.0952,300.4922,550.0952,304.4922,546.0952,300.4922" style="stroke:#181818;stroke-width:1;"/><line style="stroke:#181818;stroke-width:1;" x1="544.0952" x2="655.2407" y1="300.4922" y2="300.4922"/><text fill="#000000" font-family="sans-serif" font-size="13" lengthAdjust="spacing" textLength="33.7759" x="556.0952" y="295.4263">allow</text><polygon fill="#181818" points="313.5884,325.625,303.5884,329.625,313.5884,333.625,309.5884,329.625" style="stroke:#181818;stroke-width:1;"/><line style="stroke:#181818;stroke-width:1;" x1="307.5884" x2="538.0952" y1="329.625" y2="329.625"/><text fill="#000000" font-family="sans-serif" font-size="13" lengthAdjust="spacing" textLength="23.4609" x="319.5884" y="324.5591">line</text><polygon fill="#181818" points="527.0952,354.7578,537.0952,358.7578,527.0952,362.7578,531.0952,358.7578" style="stroke:#181818;stroke-width:1;"/><line style="stroke:#181818;stroke-width:1;" x1="302.5884" x2="533.0952" y1="358.7578" y2="358.7578"/><text fill="#000000" font-family="sans-serif" font-size="13" lengthAdjust="spacing" textLength="212.5068" x="309.5884" y="353.6919">token, associate line with device</text><polygon fill="#181818" points="644.2407,383.8906,654.2407,387.8906,644.2407,391.8906,648.2407,387.8906" style="stroke:#181818;stroke-width:1;"/><line style="stroke:#181818;stroke-width:1;" x1="539.0952" x2="650.2407" y1="387.8906" y2="387.8906"/><text fill="#000000" font-family="sans-serif" font-size="13" lengthAdjust="spacing" textLength="93.1455" x="546.0952" y="382.8247">validate token</text><polygon fill="#181818" points="550.0952,413.0234,540.0952,417.0234,550.0952,421.0234,546.0952,417.0234" style="stroke:#181818;stroke-width:1;"/><line style="stroke:#181818;stroke-width:1;" x1="544.0952" x2="655.2407" y1="417.0234" y2="417.0234"/><text fill="#000000" font-family="sans-serif" font-size="13" lengthAdjust="spacing" textLength="33.7759" x="556.0952" y="411.9575">allow</text><polygon fill="#181818" points="761.3862,442.1563,771.3862,446.1563,761.3862,450.1563,765.3862,446.1563" style="stroke:#181818;stroke-width:1;"/><line style="stroke:#181818;stroke-width:1;" x1="539.0952" x2="767.3862" y1="446.1563" y2="446.1563"/><text fill="#000000" font-family="sans-serif" font-size="13" lengthAdjust="spacing" textLength="137.7188" x="546.0952" y="441.0903">token, update device</text><polygon fill="#181818" points="667.2407,471.2891,657.2407,475.2891,667.2407,479.2891,663.2407,475.2891" style="stroke:#181818;stroke-width:1;"/><line style="stroke:#181818;stroke-width:1;" x1="661.2407" x2="772.3862" y1="475.2891" y2="475.2891"/><text fill="#000000" font-family="sans-serif" font-size="13" lengthAdjust="spacing" textLength="93.1455" x="673.2407" y="470.2231">validate token</text><polygon fill="#181818" points="761.3862,500.4219,771.3862,504.4219,761.3862,508.4219,765.3862,504.4219" style="stroke:#181818;stroke-width:1;"/><line style="stroke:#181818;stroke-width:1;" x1="656.2407" x2="767.3862" y1="504.4219" y2="504.4219"/><text fill="#000000" font-family="sans-serif" font-size="13" lengthAdjust="spacing" textLength="33.7759" x="663.2407" y="499.356">allow</text><polygon fill="#181818" points="550.0952,529.5547,540.0952,533.5547,550.0952,537.5547,546.0952,533.5547" style="stroke:#181818;stroke-width:1;"/><line style="stroke:#181818;stroke-width:1;" x1="544.0952" x2="772.3862" y1="533.5547" y2="533.5547"/><text fill="#000000" font-family="sans-serif" font-size="13" lengthAdjust="spacing" textLength="15.4819" x="556.0952" y="528.4888">ok</text><polygon fill="#181818" points="761.3862,558.6875,771.3862,562.6875,761.3862,566.6875,765.3862,562.6875" style="stroke:#181818;stroke-width:1;"/><line style="stroke:#181818;stroke-width:1;" x1="539.0952" x2="767.3862" y1="562.6875" y2="562.6875"/><text fill="#000000" font-family="sans-serif" font-size="13" lengthAdjust="spacing" textLength="169.9775" x="546.0952" y="557.6216">token, synchronize device</text><polygon fill="#181818" points="667.2407,587.8203,657.2407,591.8203,667.2407,595.8203,663.2407,591.8203" style="stroke:#181818;stroke-width:1;"/><line style="stroke:#181818;stroke-width:1;" x1="661.2407" x2="772.3862" y1="591.8203" y2="591.8203"/><text fill="#000000" font-family="sans-serif" font-size="13" lengthAdjust="spacing" textLength="93.1455" x="673.2407" y="586.7544">validate token</text><polygon fill="#181818" points="761.3862,616.9531,771.3862,620.9531,761.3862,624.9531,765.3862,620.9531" style="stroke:#181818;stroke-width:1;"/><line style="stroke:#181818;stroke-width:1;" x1="656.2407" x2="767.3862" y1="620.9531" y2="620.9531"/><text fill="#000000" font-family="sans-serif" font-size="13" lengthAdjust="spacing" textLength="33.7759" x="663.2407" y="615.8872">allow</text><polygon fill="#181818" points="550.0952,646.0859,540.0952,650.0859,550.0952,654.0859,546.0952,650.0859" style="stroke:#181818;stroke-width:1;"/><line style="stroke:#181818;stroke-width:1;" x1="544.0952" x2="772.3862" y1="650.0859" y2="650.0859"/><text fill="#000000" font-family="sans-serif" font-size="13" lengthAdjust="spacing" textLength="15.4819" x="556.0952" y="645.02">ok</text><polygon fill="#181818" points="313.5884,675.2188,303.5884,679.2188,313.5884,683.2188,309.5884,679.2188" style="stroke:#181818;stroke-width:1;"/><line style="stroke:#181818;stroke-width:1;" x1="307.5884" x2="538.0952" y1="679.2188" y2="679.2188"/><text fill="#000000" font-family="sans-serif" font-size="13" lengthAdjust="spacing" textLength="15.4819" x="319.5884" y="674.1528">ok</text><polygon fill="#181818" points="910.2827,704.3516,920.2827,708.3516,910.2827,712.3516,914.2827,708.3516" style="stroke:#181818;stroke-width:1;"/><line style="stroke:#181818;stroke-width:1;" x1="773.3862" x2="916.2827" y1="708.3516" y2="708.3516"/><text fill="#000000" font-family="sans-serif" font-size="13" lengthAdjust="spacing" textLength="124.8965" x="780.3862" y="703.2856">synchronize device</text><polygon fill="#181818" points="133.6328,733.4844,123.6328,737.4844,133.6328,741.4844,129.6328,737.4844" style="stroke:#181818;stroke-width:1;"/><line style="stroke:#181818;stroke-width:1;" x1="127.6328" x2="921.2827" y1="737.4844" y2="737.4844"/><text fill="#000000" font-family="sans-serif" font-size="13" lengthAdjust="spacing" textLength="124.8965" x="139.6328" y="732.4185">synchronize device</text><polygon fill="#181818" points="44.9058,762.6172,34.9058,766.6172,44.9058,770.6172,40.9058,766.6172" style="stroke:#181818;stroke-width:1;"/><line style="stroke:#181818;stroke-width:1;" x1="38.9058" x2="121.6328" y1="766.6172" y2="766.6172"/><text fill="#000000" font-family="sans-serif" font-size="13" lengthAdjust="spacing" textLength="62.7148" x="50.9058" y="761.5513">SIP Notify</text><polygon fill="#181818" points="761.3862,791.75,771.3862,795.75,761.3862,799.75,765.3862,795.75" style="stroke:#181818;stroke-width:1;"/><line style="stroke:#181818;stroke-width:1;" x1="33.9058" x2="767.3862" y1="795.75" y2="795.75"/><text fill="#000000" font-family="sans-serif" font-size="13" lengthAdjust="spacing" textLength="111.7124" x="40.9058" y="790.6841">get configuration</text><!--SRC=[hL9BRiCW4Dtx57E0vW9MrNqtLQMS006sHtOO2x2ZzFHbnX2YgCuYwPRtPVJcWPo5mmUe4At7CBOmUrf1ax5DUHEyHzE2iIjg2v_Ve9ovPIQKMPfSbsYHHklUeBUnA3fFfoHhX21-InnQMDM4HaMxAJBwViYecYOwRzxfBNjlXWyI9tGvh_PxFPPTTq9L2AIHxIJwZ74eBP_8lKguVGrPPX6MtoS12pFdpbVGwd3hMpKqxaM5YzE39uS__vntTzBq8fZSvyJp-YkvR93Fj4UQPSNCkAxuc3RwHH6xIqPhFnu9Ly1-yIeYkUON]--></g></svg>