<svg xmlns="http://www.w3.org/2000/svg" xmlns:xlink="http://www.w3.org/1999/xlink" contentStyleType="text/css" height="266px" preserveAspectRatio="none" style="width:262px;height:266px;background:#FFFFFF;" version="1.1" viewBox="0 0 262 266" width="262px" zoomAndPan="magnify"><defs/><g><line style="stroke:#181818;stroke-width:0.5;stroke-dasharray:5.0,5.0;" x1="27" x2="27" y1="36.2969" y2="231.0938"/><line style="stroke:#181818;stroke-width:0.5;stroke-dasharray:5.0,5.0;" x1="130.6411" x2="130.6411" y1="36.2969" y2="231.0938"/><line style="stroke:#181818;stroke-width:0.5;stroke-dasharray:5.0,5.0;" x1="235.27" x2="235.27" y1="36.2969" y2="231.0938"/><rect fill="#E2E2F0" height="30.2969" rx="2.5" ry="2.5" style="stroke:#181818;stroke-width:0.5;" width="45.9102" x="5" y="5"/><text fill="#000000" font-family="sans-serif" font-size="14" lengthAdjust="spacing" textLength="31.9102" x="12" y="24.9951">User</text><rect fill="#E2E2F0" height="30.2969" rx="2.5" ry="2.5" style="stroke:#181818;stroke-width:0.5;" width="45.9102" x="5" y="230.0938"/><text fill="#000000" font-family="sans-serif" font-size="14" lengthAdjust="spacing" textLength="31.9102" x="12" y="250.0889">User</text><rect fill="#E2E2F0" height="30.2969" rx="2.5" ry="2.5" style="stroke:#181818;stroke-width:0.5;" width="45.8145" x="108.6411" y="5"/><text fill="#000000" font-family="sans-serif" font-size="14" lengthAdjust="spacing" textLength="31.8145" x="115.6411" y="24.9951">auth</text><rect fill="#E2E2F0" height="30.2969" rx="2.5" ry="2.5" style="stroke:#181818;stroke-width:0.5;" width="45.8145" x="108.6411" y="230.0938"/><text fill="#000000" font-family="sans-serif" font-size="14" lengthAdjust="spacing" textLength="31.8145" x="115.6411" y="250.0889">auth</text><rect fill="#E2E2F0" height="30.2969" rx="2.5" ry="2.5" style="stroke:#181818;stroke-width:0.5;" width="41.4189" x="215.27" y="5"/><text fill="#000000" font-family="sans-serif" font-size="14" lengthAdjust="spacing" textLength="27.4189" x="222.27" y="24.9951">dird</text><rect fill="#E2E2F0" height="30.2969" rx="2.5" ry="2.5" style="stroke:#181818;stroke-width:0.5;" width="41.4189" x="215.27" y="230.0938"/><text fill="#000000" font-family="sans-serif" font-size="14" lengthAdjust="spacing" textLength="27.4189" x="222.27" y="250.0889">dird</text><polygon fill="#181818" points="119.5483,63.4297,129.5483,67.4297,119.5483,71.4297,123.5483,67.4297" style="stroke:#181818;stroke-width:1;"/><line style="stroke:#181818;stroke-width:1;" x1="27.9551" x2="125.5483" y1="67.4297" y2="67.4297"/><text fill="#000000" font-family="sans-serif" font-size="13" lengthAdjust="spacing" textLength="79.5933" x="34.9551" y="62.3638">POST /token</text><polygon fill="#181818" points="38.9551,92.5625,28.9551,96.5625,38.9551,100.5625,34.9551,96.5625" style="stroke:#181818;stroke-width:1;"/><line style="stroke:#181818;stroke-width:1;" x1="32.9551" x2="130.5483" y1="96.5625" y2="96.5625"/><text fill="#000000" font-family="sans-serif" font-size="13" lengthAdjust="spacing" textLength="39.6602" x="44.9551" y="91.4966">Token</text><polygon fill="#181818" points="223.9795,121.6953,233.9795,125.6953,223.9795,129.6953,227.9795,125.6953" style="stroke:#181818;stroke-width:1;"/><line style="stroke:#181818;stroke-width:1;" x1="27.9551" x2="229.9795" y1="125.6953" y2="125.6953"/><text fill="#000000" font-family="sans-serif" font-size="13" lengthAdjust="spacing" textLength="155.0859" x="34.9551" y="120.6294">GET /dir/lookup &amp; token</text><polygon fill="#181818" points="142.5483,150.8281,132.5483,154.8281,142.5483,158.8281,138.5483,154.8281" style="stroke:#181818;stroke-width:1;"/><line style="stroke:#181818;stroke-width:1;" x1="136.5483" x2="234.9795" y1="154.8281" y2="154.8281"/><text fill="#000000" font-family="sans-serif" font-size="13" lengthAdjust="spacing" textLength="80.4312" x="148.5483" y="149.7622">token &amp; ACL</text><polygon fill="#181818" points="223.9795,179.9609,233.9795,183.9609,223.9795,187.9609,227.9795,183.9609" style="stroke:#181818;stroke-width:1;"/><line style="stroke:#181818;stroke-width:1;" x1="131.5483" x2="229.9795" y1="183.9609" y2="183.9609"/><text fill="#000000" font-family="sans-serif" font-size="13" lengthAdjust="spacing" textLength="71.189" x="138.5483" y="178.895">204 or 403</text><polygon fill="#181818" points="38.9551,209.0938,28.9551,213.0938,38.9551,217.0938,34.9551,213.0938" style="stroke:#181818;stroke-width:1;"/><line style="stroke:#181818;stroke-width:1;" x1="32.9551" x2="234.9795" y1="213.0938" y2="213.0938"/><text fill="#000000" font-family="sans-serif" font-size="13" lengthAdjust="spacing" textLength="40.752" x="44.9551" y="208.0278">Result</text><!--SRC=[2orEBLBGjLD8B2t9i588y0yEKT0loSzEpUCA1SdOw49bGi1Y446WyfJCeXGh1NTNe6eWKpydFp-xj411JG6Y5QG5f1MY2Ym6b7Dqze78mFKR6PWev1Sfc1WOSt61H40o81ki589IYqjpIhW0]--></g></svg>