<svg xmlns="http://www.w3.org/2000/svg" xmlns:xlink="http://www.w3.org/1999/xlink" contentStyleType="text/css" height="446px" preserveAspectRatio="none" style="width:1217px;height:446px;background:#FFFFFF;" version="1.1" viewBox="0 0 1217 446" width="1217px" zoomAndPan="magnify"><defs/><g><!--cluster Global--><g id="cluster_Global"><path d="M551.93,190.67 L603.1058,190.67 A3.75,3.75 0 0 1 605.6058,193.17 L612.6058,212.9669 L926.93,212.9669 A2.5,2.5 0 0 1 929.43,215.4669 L929.43,437.25 A2.5,2.5 0 0 1 926.93,439.75 L551.93,439.75 A2.5,2.5 0 0 1 549.43,437.25 L549.43,193.17 A2.5,2.5 0 0 1 551.93,190.67 " fill="none" style="stroke:#000000;stroke-width:1.5;"/><line style="stroke:#000000;stroke-width:1.5;" x1="549.43" x2="612.6058" y1="212.9669" y2="212.9669"/><text fill="#000000" font-family="sans-serif" font-size="14" font-weight="bold" lengthAdjust="spacing" textLength="50.1758" x="553.43" y="205.6651">Global</text></g><g id="elem_General"><rect fill="#F1F1F1" height="77.1875" style="stroke:#181818;stroke-width:0.5;" width="348.8545" x="565" y="225.67"/><text fill="#000000" font-family="sans-serif" font-size="14" lengthAdjust="spacing" textLength="55.1729" x="711.8408" y="240.6651">General</text><line style="stroke:#181818;stroke-width:0.5;" x1="566" x2="912.8545" y1="245.9669" y2="245.9669"/><text fill="#000000" font-family="sans-serif" font-size="14" lengthAdjust="spacing" textLength="107.5703" x="571" y="262.962">allow: !all,g729</text><text fill="#000000" font-family="sans-serif" font-size="14" lengthAdjust="spacing" textLength="142.8232" x="571" y="279.2589">dtmf_mode: rfc4733</text><text fill="#000000" font-family="sans-serif" font-size="14" lengthAdjust="spacing" textLength="336.8545" x="571" y="295.5557">set_var: "TENANT_CHANNEL_VARIABLE=foobar"</text></g><g id="elem_WebRTC"><rect fill="#F1F1F1" height="60.8906" style="stroke:#181818;stroke-width:0.5;" width="136.168" x="762.34" y="362.86"/><text fill="#000000" font-family="sans-serif" font-size="14" lengthAdjust="spacing" textLength="59.3975" x="800.7253" y="377.8551">WebRTC</text><line style="stroke:#181818;stroke-width:0.5;" x1="763.34" x2="897.508" y1="383.1569" y2="383.1569"/><text fill="#000000" font-family="sans-serif" font-size="14" lengthAdjust="spacing" textLength="81.252" x="768.34" y="400.152">webrtc: yes</text><text fill="#000000" font-family="sans-serif" font-size="14" lengthAdjust="spacing" textLength="124.168" x="768.34" y="416.4489">max_contacts: 10</text></g><g id="elem_SIP"><rect fill="#F1F1F1" height="60.8906" style="stroke:#181818;stroke-width:0.5;" width="161.0508" x="565.9" y="362.86"/><text fill="#000000" font-family="sans-serif" font-size="14" lengthAdjust="spacing" textLength="21.458" x="635.6964" y="377.8551">SIP</text><line style="stroke:#181818;stroke-width:0.5;" x1="566.9" x2="725.9508" y1="383.1569" y2="383.1569"/><text fill="#000000" font-family="sans-serif" font-size="14" lengthAdjust="spacing" textLength="115.2607" x="571.9" y="400.152">max_contacts: 1</text><text fill="#000000" font-family="sans-serif" font-size="14" lengthAdjust="spacing" textLength="149.0508" x="571.9" y="416.4489">remove_existing: yes</text></g><g id="elem_UserPreference1"><rect fill="#F1F1F1" height="44.5938" style="stroke:#181818;stroke-width:0.5;" width="216.8457" x="245" y="371.01"/><text fill="#000000" font-family="sans-serif" font-size="14" lengthAdjust="spacing" textLength="116.7236" x="295.061" y="386.0051">UserPreference1</text><line style="stroke:#181818;stroke-width:0.5;" x1="246" x2="460.8457" y1="391.3069" y2="391.3069"/><text fill="#000000" font-family="sans-serif" font-size="14" lengthAdjust="spacing" textLength="204.8457" x="251" y="408.302">set_var: "PERSONAL=foobar"</text></g><g id="elem_UserPreference2"><rect fill="#F1F1F1" height="44.5938" style="stroke:#181818;stroke-width:0.5;" width="218.4385" x="945.21" y="371.01"/><text fill="#000000" font-family="sans-serif" font-size="14" lengthAdjust="spacing" textLength="116.7236" x="996.0674" y="386.0051">UserPreference2</text><line style="stroke:#181818;stroke-width:0.5;" x1="946.21" x2="1162.6485" y1="391.3069" y2="391.3069"/><text fill="#000000" font-family="sans-serif" font-size="14" lengthAdjust="spacing" textLength="206.4385" x="951.21" y="408.302">set_var: "PERSONAL=foobaz"</text></g><g id="elem_Line1"><rect fill="#F1F1F1" height="60.8906" style="stroke:#181818;stroke-width:0.5;" width="139.7637" x="390.55" y="233.82"/><text fill="#000000" font-family="sans-serif" font-size="14" lengthAdjust="spacing" textLength="38.083" x="441.3903" y="248.8151">Line1</text><line style="stroke:#181818;stroke-width:0.5;" x1="391.55" x2="529.3137" y1="254.1169" y2="254.1169"/><text fill="#000000" font-family="sans-serif" font-size="14" lengthAdjust="spacing" textLength="126.998" x="396.55" y="271.112">username: abcdef</text><text fill="#000000" font-family="sans-serif" font-size="14" lengthAdjust="spacing" textLength="127.7637" x="396.55" y="287.4089">password: 123abc</text></g><g id="elem_Line2"><rect fill="#F1F1F1" height="60.8906" style="stroke:#181818;stroke-width:0.5;" width="140.0713" x="215.39" y="233.82"/><text fill="#000000" font-family="sans-serif" font-size="14" lengthAdjust="spacing" textLength="38.083" x="266.3841" y="248.8151">Line2</text><line style="stroke:#181818;stroke-width:0.5;" x1="216.39" x2="354.4613" y1="254.1169" y2="254.1169"/><text fill="#000000" font-family="sans-serif" font-size="14" lengthAdjust="spacing" textLength="127.3057" x="221.39" y="271.112">username: bcdefg</text><text fill="#000000" font-family="sans-serif" font-size="14" lengthAdjust="spacing" textLength="128.0713" x="221.39" y="287.4089">password: 234bcd</text></g><g id="elem_Line3"><rect fill="#F1F1F1" height="60.8906" style="stroke:#181818;stroke-width:0.5;" width="139.292" x="966.78" y="233.82"/><text fill="#000000" font-family="sans-serif" font-size="14" lengthAdjust="spacing" textLength="38.083" x="1017.3845" y="248.8151">Line3</text><line style="stroke:#181818;stroke-width:0.5;" x1="967.78" x2="1105.072" y1="254.1169" y2="254.1169"/><text fill="#000000" font-family="sans-serif" font-size="14" lengthAdjust="spacing" textLength="127.292" x="972.78" y="271.112">username: cdefgh</text><text fill="#000000" font-family="sans-serif" font-size="14" lengthAdjust="spacing" textLength="124.9404" x="972.78" y="287.4089">password: 345cdr</text></g><g id="elem_ResultingLine1"><rect fill="#F1F1F1" height="158.6719" style="stroke:#181818;stroke-width:0.5;" width="348.8545" x="391" y="7"/><text fill="#000000" font-family="sans-serif" font-size="14" lengthAdjust="spacing" textLength="103.6191" x="513.6177" y="21.9951">ResultingLine1</text><line style="stroke:#181818;stroke-width:0.5;" x1="392" x2="738.8545" y1="27.2969" y2="27.2969"/><text fill="#000000" font-family="sans-serif" font-size="14" lengthAdjust="spacing" textLength="107.5703" x="397" y="44.292">allow: !all,g729</text><text fill="#000000" font-family="sans-serif" font-size="14" lengthAdjust="spacing" textLength="142.8232" x="397" y="60.5889">dtmf_mode: rfc4733</text><text fill="#000000" font-family="sans-serif" font-size="14" lengthAdjust="spacing" textLength="124.168" x="397" y="76.8857">max_contacts: 10</text><text fill="#000000" font-family="sans-serif" font-size="14" lengthAdjust="spacing" textLength="127.7637" x="397" y="93.1826">password: 123abc</text><text fill="#000000" font-family="sans-serif" font-size="14" lengthAdjust="spacing" textLength="204.8457" x="397" y="109.4795">set_var: "PERSONAL=foobar"</text><text fill="#000000" font-family="sans-serif" font-size="14" lengthAdjust="spacing" textLength="336.8545" x="397" y="125.7764">set_var: "TENANT_CHANNEL_VARIABLE=foobar"</text><text fill="#000000" font-family="sans-serif" font-size="14" lengthAdjust="spacing" textLength="126.998" x="397" y="142.0732">username: abcdef</text><text fill="#000000" font-family="sans-serif" font-size="14" lengthAdjust="spacing" textLength="81.252" x="397" y="158.3701">webrtc: yes</text></g><g id="elem_ResultingLine2"><rect fill="#F1F1F1" height="158.6719" style="stroke:#181818;stroke-width:0.5;" width="348.8545" x="7" y="7"/><text fill="#000000" font-family="sans-serif" font-size="14" lengthAdjust="spacing" textLength="103.6191" x="129.6177" y="21.9951">ResultingLine2</text><line style="stroke:#181818;stroke-width:0.5;" x1="8" x2="354.8545" y1="27.2969" y2="27.2969"/><text fill="#000000" font-family="sans-serif" font-size="14" lengthAdjust="spacing" textLength="107.5703" x="13" y="44.292">allow: !all,g729</text><text fill="#000000" font-family="sans-serif" font-size="14" lengthAdjust="spacing" textLength="142.8232" x="13" y="60.5889">dtmf_mode: rfc4733</text><text fill="#000000" font-family="sans-serif" font-size="14" lengthAdjust="spacing" textLength="115.2607" x="13" y="76.8857">max_contacts: 1</text><text fill="#000000" font-family="sans-serif" font-size="14" lengthAdjust="spacing" textLength="128.0713" x="13" y="93.1826">password: 234bcd</text><text fill="#000000" font-family="sans-serif" font-size="14" lengthAdjust="spacing" textLength="149.0508" x="13" y="109.4795">remove_existing: yes</text><text fill="#000000" font-family="sans-serif" font-size="14" lengthAdjust="spacing" textLength="204.8457" x="13" y="125.7764">set_var: "PERSONAL=foobar"</text><text fill="#000000" font-family="sans-serif" font-size="14" lengthAdjust="spacing" textLength="336.8545" x="13" y="142.0732">set_var: "TENANT_CHANNEL_VARIABLE=foobar"</text><text fill="#000000" font-family="sans-serif" font-size="14" lengthAdjust="spacing" textLength="127.3057" x="13" y="158.3701">username: bcdefg</text></g><g id="elem_ResultingLine3"><rect fill="#F1F1F1" height="158.6719" style="stroke:#181818;stroke-width:0.5;" width="348.8545" x="862" y="7"/><text fill="#000000" font-family="sans-serif" font-size="14" lengthAdjust="spacing" textLength="103.6191" x="984.6177" y="21.9951">ResultingLine3</text><line style="stroke:#181818;stroke-width:0.5;" x1="863" x2="1209.8545" y1="27.2969" y2="27.2969"/><text fill="#000000" font-family="sans-serif" font-size="14" lengthAdjust="spacing" textLength="107.5703" x="868" y="44.292">allow: !all,g729</text><text fill="#000000" font-family="sans-serif" font-size="14" lengthAdjust="spacing" textLength="142.8232" x="868" y="60.5889">dtmf_mode: rfc4733</text><text fill="#000000" font-family="sans-serif" font-size="14" lengthAdjust="spacing" textLength="124.168" x="868" y="76.8857">max_contacts: 10</text><text fill="#000000" font-family="sans-serif" font-size="14" lengthAdjust="spacing" textLength="124.9404" x="868" y="93.1826">password: 345cdr</text><text fill="#000000" font-family="sans-serif" font-size="14" lengthAdjust="spacing" textLength="206.4385" x="868" y="109.4795">set_var: "PERSONAL=foobaz"</text><text fill="#000000" font-family="sans-serif" font-size="14" lengthAdjust="spacing" textLength="336.8545" x="868" y="125.7764">set_var: "TENANT_CHANNEL_VARIABLE=foobar"</text><text fill="#000000" font-family="sans-serif" font-size="14" lengthAdjust="spacing" textLength="127.292" x="868" y="142.0732">username: cdefgh</text><text fill="#000000" font-family="sans-serif" font-size="14" lengthAdjust="spacing" textLength="81.252" x="868" y="158.3701">webrtc: yes</text></g><!--reverse link General to WebRTC--><g id="link_General_WebRTC"><path codeLine="66" d="M776.9685,317.6685 C790.5985,336.6785 796.38,344.78 809.1,362.54 " fill="none" id="General-backto-WebRTC" style="stroke:#181818;stroke-width:1;"/><polygon fill="none" points="766.48,303.04,772.0923,321.1646,781.8446,314.1723,766.48,303.04" style="stroke:#181818;stroke-width:1;"/></g><!--reverse link General to SIP--><g id="link_General_SIP"><path codeLine="67" d="M701.1408,317.5592 C687.2108,336.5692 681.22,344.78 668.22,362.54 " fill="none" id="General-backto-SIP" style="stroke:#181818;stroke-width:1;"/><polygon fill="none" points="711.78,303.04,696.301,314.0128,705.9805,321.1056,711.78,303.04" style="stroke:#181818;stroke-width:1;"/></g><!--reverse link Line1 to UserPreference1--><g id="link_Line1_UserPreference1"><path codeLine="68" d="M427.6104,304.2289 C408.0904,327.4089 389.19,349.84 371.67,370.65 " fill="none" id="Line1-backto-UserPreference1" style="stroke:#181818;stroke-width:1;"/><polygon fill="none" points="435.34,295.05,428.4155,297.0629,427.6104,304.2289,434.5348,302.216,435.34,295.05" style="stroke:#181818;stroke-width:1;"/></g><!--reverse link Line1 to WebRTC--><g id="link_Line1_WebRTC"><path codeLine="69" d="M540.294,299.551 C547.104,302.271 542.81,300.45 549.43,302.86 C634.63,333.87 658.19,334.84 744.43,362.86 C750.13,364.71 756.04,366.66 761.96,368.65 " fill="none" id="Line1-backto-WebRTC" style="stroke:#181818;stroke-width:1;"/><polygon fill="none" points="529.15,295.1,533.2383,301.0402,540.294,299.551,536.2057,293.6109,529.15,295.1" style="stroke:#181818;stroke-width:1;"/></g><!--reverse link Line2 to UserPreference1--><g id="link_Line2_UserPreference1"><path codeLine="70" d="M307.0303,305.6312 C319.4303,328.8112 330.7,349.84 341.84,370.65 " fill="none" id="Line2-backto-UserPreference1" style="stroke:#181818;stroke-width:1;"/><polygon fill="none" points="301.37,295.05,300.6731,302.2273,307.0303,305.6312,307.7272,298.4538,301.37,295.05" style="stroke:#181818;stroke-width:1;"/></g><!--reverse link Line2 to SIP--><g id="link_Line2_SIP"><path codeLine="71" d="M365.0129,299.7034 C371.5829,302.3634 367.05,300.46 373.43,302.86 C437.25,326.9 510.79,350.78 565.45,367.81 " fill="none" id="Line2-backto-SIP" style="stroke:#181818;stroke-width:1;"/><polygon fill="none" points="353.89,295.2,357.9504,301.1593,365.0129,299.7034,360.9526,293.744,353.89,295.2" style="stroke:#181818;stroke-width:1;"/></g><!--reverse link Line3 to UserPreference2--><g id="link_Line3_UserPreference2"><path codeLine="72" d="M1042.3313,306.9316 C1045.6113,330.1116 1048.41,349.84 1051.36,370.65 " fill="none" id="Line3-backto-UserPreference2" style="stroke:#181818;stroke-width:1;"/><polygon fill="none" points="1040.65,295.05,1037.5301,301.5512,1042.3313,306.9316,1045.4512,300.4304,1040.65,295.05" style="stroke:#181818;stroke-width:1;"/></g><!--reverse link Line3 to WebRTC--><g id="link_Line3_WebRTC"><path codeLine="73" d="M977.9169,301.3502 C944.9769,321.6702 911.73,342.16 878.78,362.49 " fill="none" id="Line3-backto-WebRTC" style="stroke:#181818;stroke-width:1;"/><polygon fill="none" points="988.13,295.05,980.9234,294.7958,977.9169,301.3502,985.1235,301.6045,988.13,295.05" style="stroke:#181818;stroke-width:1;"/></g><!--reverse link ResultingLine1 to Line1--><g id="link_ResultingLine1_Line1"><path codeLine="74" d="M512.3088,176.3435 C497.9988,200.3135 489.29,214.91 478.19,233.51 " fill="none" id="ResultingLine1-backto-Line1" style="stroke:#181818;stroke-width:1;"/><polygon fill="#181818" points="518.46,166.04,511.9499,169.1414,512.3088,176.3435,518.8189,173.2422,518.46,166.04" style="stroke:#181818;stroke-width:1;"/></g><!--reverse link ResultingLine2 to Line2--><g id="link_ResultingLine2_Line2"><path codeLine="75" d="M234.0566,176.37 C248.2266,200.34 256.84,214.91 267.83,233.51 " fill="none" id="ResultingLine2-backto-Line2" style="stroke:#181818;stroke-width:1;"/><polygon fill="#181818" points="227.95,166.04,227.56,173.2405,234.0566,176.37,234.4467,169.1695,227.95,166.04" style="stroke:#181818;stroke-width:1;"/></g><!--reverse link ResultingLine3 to Line3--><g id="link_ResultingLine3_Line3"><path codeLine="76" d="M1036.43,178.04 C1036.43,202.01 1036.43,214.91 1036.43,233.51 " fill="none" id="ResultingLine3-backto-Line3" style="stroke:#181818;stroke-width:1;"/><polygon fill="#181818" points="1036.43,166.04,1032.43,172.04,1036.43,178.04,1040.43,172.04,1036.43,166.04" style="stroke:#181818;stroke-width:1;"/></g><!--SRC=[lLJRJeD047tdAzO-6flOtPf6eW_OaDg4ODDMVIJBCc0Ls6QX5o_zTrTk1Kgr6XKUMERidCdCd9avPK_K0pJmkKrzzAfm-n5OZ0OGWaWCA7kex_ELYexazyJhuVC2SEB0jGBkW8g4oxezGWeeWjXQKg6YrbGtDNDgzQyrqzGDwquR3xKhGxzqkOmhMiec3tmFzdZQByLTWIrYfg9dY0fRGDSMus5CMHofg7EwTPyCHoNVsht2BY3WIx1WFOlYMUYbv1lvvZIt4OYH01S4X0mw9SfjIYDzFBanDMCtXwetFi3xfUHjpC9An8La2saWoqjjve1R07CQHIik79aP9XAhKk16YeJ1Qw30f2knAWLff4WO7XeeIFUCEM9BCOPeuN_KjvxHJwIqq_AzLJYWKz_NvvVDACkqkGBuTokmluUVgloVgfFfhBaIvE-ra6dnWBdxZMnh8r7LWfBlqektTZlRRrMRN5fAEYDS_jLsJmd9V5CnxRkQ8ZabQRY7IqX6MHlLOuaa9wMcu1p0IgsXEK2KTm00]--></g></svg>