<svg xmlns="http://www.w3.org/2000/svg" xmlns:xlink="http://www.w3.org/1999/xlink" contentStyleType="text/css" height="402px" preserveAspectRatio="none" style="width:813px;height:402px;background:#FFFFFF;" version="1.1" viewBox="0 0 813 402" width="813px" zoomAndPan="magnify"><defs/><g><line style="stroke:#181818;stroke-width:0.5;stroke-dasharray:5.0,5.0;" x1="24" x2="24" y1="81.2969" y2="321.4922"/><line style="stroke:#181818;stroke-width:0.5;stroke-dasharray:5.0,5.0;" x1="320.1694" x2="320.1694" y1="81.2969" y2="321.4922"/><line style="stroke:#181818;stroke-width:0.5;stroke-dasharray:5.0,5.0;" x1="508.5557" x2="508.5557" y1="81.2969" y2="321.4922"/><line style="stroke:#181818;stroke-width:0.5;stroke-dasharray:5.0,5.0;" x1="642.0698" x2="642.0698" y1="81.2969" y2="321.4922"/><line style="stroke:#181818;stroke-width:0.5;stroke-dasharray:5.0,5.0;" x1="792.6997" x2="792.6997" y1="81.2969" y2="321.4922"/><text fill="#000000" font-family="sans-serif" font-size="14" lengthAdjust="spacing" textLength="33.667" x="5" y="77.9951">Alice</text><ellipse cx="24.8335" cy="13.5" fill="#E2E2F0" rx="8" ry="8" style="stroke:#181818;stroke-width:0.5;"/><path d="M24.8335,21.5 L24.8335,48.5 M11.8335,29.5 L37.8335,29.5 M24.8335,48.5 L11.8335,63.5 M24.8335,48.5 L37.8335,63.5 " fill="none" style="stroke:#181818;stroke-width:0.5;"/><text fill="#000000" font-family="sans-serif" font-size="14" lengthAdjust="spacing" textLength="33.667" x="5" y="333.4873">Alice</text><ellipse cx="24.8335" cy="345.2891" fill="#E2E2F0" rx="8" ry="8" style="stroke:#181818;stroke-width:0.5;"/><path d="M24.8335,353.2891 L24.8335,380.2891 M11.8335,361.2891 L37.8335,361.2891 M24.8335,380.2891 L11.8335,395.2891 M24.8335,380.2891 L37.8335,395.2891 " fill="none" style="stroke:#181818;stroke-width:0.5;"/><rect fill="#E2E2F0" height="30.2969" rx="2.5" ry="2.5" style="stroke:#181818;stroke-width:0.5;" width="53.5254" x="294.1694" y="50"/><text fill="#000000" font-family="sans-serif" font-size="14" lengthAdjust="spacing" textLength="39.5254" x="301.1694" y="69.9951">chatd</text><rect fill="#E2E2F0" height="30.2969" rx="2.5" ry="2.5" style="stroke:#181818;stroke-width:0.5;" width="53.5254" x="294.1694" y="320.4922"/><text fill="#000000" font-family="sans-serif" font-size="14" lengthAdjust="spacing" textLength="39.5254" x="301.1694" y="340.4873">chatd</text><rect fill="#E2E2F0" height="30.2969" rx="2.5" ry="2.5" style="stroke:#181818;stroke-width:0.5;" width="39.0537" x="489.5557" y="50"/><text fill="#000000" font-family="sans-serif" font-size="14" lengthAdjust="spacing" textLength="25.0537" x="496.5557" y="69.9951">bus</text><rect fill="#E2E2F0" height="30.2969" rx="2.5" ry="2.5" style="stroke:#181818;stroke-width:0.5;" width="39.0537" x="489.5557" y="320.4922"/><text fill="#000000" font-family="sans-serif" font-size="14" lengthAdjust="spacing" textLength="25.0537" x="496.5557" y="340.4873">bus</text><rect fill="#E2E2F0" height="30.2969" rx="2.5" ry="2.5" style="stroke:#181818;stroke-width:0.5;" width="97.6035" x="594.0698" y="50"/><text fill="#000000" font-family="sans-serif" font-size="14" lengthAdjust="spacing" textLength="83.6035" x="601.0698" y="69.9951">websocketd</text><rect fill="#E2E2F0" height="30.2969" rx="2.5" ry="2.5" style="stroke:#181818;stroke-width:0.5;" width="97.6035" x="594.0698" y="320.4922"/><text fill="#000000" font-family="sans-serif" font-size="14" lengthAdjust="spacing" textLength="83.6035" x="601.0698" y="340.4873">websocketd</text><text fill="#000000" font-family="sans-serif" font-size="14" lengthAdjust="spacing" textLength="27.0566" x="776.6997" y="77.9951">Bob</text><ellipse cx="793.228" cy="13.5" fill="#E2E2F0" rx="8" ry="8" style="stroke:#181818;stroke-width:0.5;"/><path d="M793.228,21.5 L793.228,48.5 M780.228,29.5 L806.228,29.5 M793.228,48.5 L780.228,63.5 M793.228,48.5 L806.228,63.5 " fill="none" style="stroke:#181818;stroke-width:0.5;"/><text fill="#000000" font-family="sans-serif" font-size="14" lengthAdjust="spacing" textLength="27.0566" x="776.6997" y="333.4873">Bob</text><ellipse cx="793.228" cy="345.2891" fill="#E2E2F0" rx="8" ry="8" style="stroke:#181818;stroke-width:0.5;"/><path d="M793.228,353.2891 L793.228,380.2891 M780.228,361.2891 L806.228,361.2891 M793.228,380.2891 L780.228,395.2891 M793.228,380.2891 L806.228,395.2891 " fill="none" style="stroke:#181818;stroke-width:0.5;"/><polygon fill="#181818" points="308.9321,138.6953,318.9321,142.6953,308.9321,146.6953,312.9321,142.6953" style="stroke:#181818;stroke-width:1;"/><line style="stroke:#181818;stroke-width:1;" x1="24.8335" x2="314.9321" y1="142.6953" y2="142.6953"/><text fill="#000000" font-family="sans-serif" font-size="13" font-weight="bold" lengthAdjust="spacing" textLength="104.2158" x="31.8335" y="107.3638">Create a room</text><text fill="#000000" font-family="sans-serif" font-size="13" lengthAdjust="spacing" textLength="148.0146" x="31.8335" y="122.4966">POST /users/me/rooms</text><text fill="#000000" font-family="sans-serif" font-size="13" lengthAdjust="spacing" textLength="145.1582" x="31.8335" y="137.6294">{users:[&lt;uuid:bob&gt;]}</text><polygon fill="#181818" points="35.8335,152.6953,25.8335,156.6953,35.8335,160.6953,31.8335,156.6953" style="stroke:#181818;stroke-width:1;"/><line style="stroke:#181818;stroke-width:1;stroke-dasharray:2.0,2.0;" x1="29.8335" x2="319.9321" y1="156.6953" y2="156.6953"/><polygon fill="#181818" points="308.9321,196.9609,318.9321,200.9609,308.9321,204.9609,312.9321,200.9609" style="stroke:#181818;stroke-width:1;"/><line style="stroke:#181818;stroke-width:1;" x1="24.8335" x2="314.9321" y1="200.9609" y2="200.9609"/><text fill="#000000" font-family="sans-serif" font-size="13" font-weight="bold" lengthAdjust="spacing" textLength="131.1299" x="31.8335" y="180.7622">Create a message</text><text fill="#000000" font-family="sans-serif" font-size="13" lengthAdjust="spacing" textLength="272.0986" x="31.8335" y="195.895">POST /users/me/rooms/&lt;uuid&gt;/messages</text><polygon fill="#181818" points="497.0825,241.2266,507.0825,245.2266,497.0825,249.2266,501.0825,245.2266" style="stroke:#181818;stroke-width:1;"/><line style="stroke:#181818;stroke-width:1;stroke-dasharray:2.0,2.0;" x1="320.9321" x2="503.0825" y1="245.2266" y2="245.2266"/><text fill="#000000" font-family="sans-serif" font-size="13" font-weight="bold" lengthAdjust="spacing" textLength="123.2524" x="327.9321" y="225.0278">Publish message</text><text fill="#000000" font-family="sans-serif" font-size="13" lengthAdjust="spacing" textLength="164.1504" x="327.9321" y="240.1606">as Accent platform event</text><polygon fill="#181818" points="630.8716,270.3594,640.8716,274.3594,630.8716,278.3594,634.8716,274.3594" style="stroke:#181818;stroke-width:1;"/><line style="stroke:#181818;stroke-width:1;stroke-dasharray:2.0,2.0;" x1="509.0825" x2="636.8716" y1="274.3594" y2="274.3594"/><text fill="#000000" font-family="sans-serif" font-size="13" font-weight="bold" lengthAdjust="spacing" textLength="109.7891" x="516.0825" y="269.2935">Relay message</text><polygon fill="#181818" points="781.228,299.4922,791.228,303.4922,781.228,307.4922,785.228,303.4922" style="stroke:#181818;stroke-width:1;"/><line style="stroke:#181818;stroke-width:1;" x1="642.8716" x2="787.228" y1="303.4922" y2="303.4922"/><text fill="#000000" font-family="sans-serif" font-size="13" font-weight="bold" lengthAdjust="spacing" textLength="126.3564" x="649.8716" y="298.4263">Receive message</text><!--SRC=[VP112i8m44NtESLSe6HVIg5w08kwioucwMYBRIEPf2BYtKr3jIx4pS1y_d_p6TJEM2YwLfE84v8ST8EkJY5J-TeIEW84QqnV3ULcjmVfcIpBdkGaSZKyef0UCk_REbL6vSUdY0n80YrYqx_qdfZnJByFoCZDvMpYBxJo746bLrtBpS91Xa9h6XnSEtGdOtkWCQmY96BoHegDlj3SP4iTtjzn8J1-PMMKM7nJzQ3CTatjI9_02m00]--></g></svg>