<svg xmlns="http://www.w3.org/2000/svg" xmlns:xlink="http://www.w3.org/1999/xlink" contentStyleType="text/css" height="568px" preserveAspectRatio="none" style="width:1009px;height:568px;background:#FFFFFF;" version="1.1" viewBox="0 0 1009 568" width="1009px" zoomAndPan="magnify"><defs/><g><rect fill="none" height="195.3281" style="stroke:#000000;stroke-width:1.5;" width="663.3208" x="105.2378" y="127.4297"/><rect fill="none" height="133.6641" style="stroke:#000000;stroke-width:1.5;" width="993.9951" x="10" y="336.7578"/><line style="stroke:#181818;stroke-width:0.5;stroke-dasharray:5.0,5.0;" x1="39" x2="39" y1="81.2969" y2="487.4219"/><line style="stroke:#181818;stroke-width:0.5;stroke-dasharray:5.0,5.0;" x1="149.2378" x2="149.2378" y1="81.2969" y2="487.4219"/><line style="stroke:#181818;stroke-width:0.5;stroke-dasharray:5.0,5.0;" x1="343.2681" x2="343.2681" y1="81.2969" y2="487.4219"/><line style="stroke:#181818;stroke-width:0.5;stroke-dasharray:5.0,5.0;" x1="537.2534" x2="537.2534" y1="81.2969" y2="487.4219"/><line style="stroke:#181818;stroke-width:0.5;stroke-dasharray:5.0,5.0;" x1="731.0332" x2="731.0332" y1="81.2969" y2="487.4219"/><line style="stroke:#181818;stroke-width:0.5;stroke-dasharray:5.0,5.0;" x1="816.5586" x2="816.5586" y1="81.2969" y2="487.4219"/><line style="stroke:#181818;stroke-width:0.5;stroke-dasharray:5.0,5.0;" x1="976.9385" x2="976.9385" y1="81.2969" y2="487.4219"/><text fill="#000000" font-family="sans-serif" font-size="14" lengthAdjust="spacing" textLength="33.667" x="20" y="77.9951">Alice</text><ellipse cx="39.8335" cy="13.5" fill="#E2E2F0" rx="8" ry="8" style="stroke:#181818;stroke-width:0.5;"/><path d="M39.8335,21.5 L39.8335,48.5 M26.8335,29.5 L52.8335,29.5 M39.8335,48.5 L26.8335,63.5 M39.8335,48.5 L52.8335,63.5 " fill="none" style="stroke:#181818;stroke-width:0.5;"/><text fill="#000000" font-family="sans-serif" font-size="14" lengthAdjust="spacing" textLength="33.667" x="20" y="499.417">Alice</text><ellipse cx="39.8335" cy="511.2188" fill="#E2E2F0" rx="8" ry="8" style="stroke:#181818;stroke-width:0.5;"/><path d="M39.8335,519.2188 L39.8335,546.2188 M26.8335,527.2188 L52.8335,527.2188 M39.8335,546.2188 L26.8335,561.2188 M39.8335,546.2188 L52.8335,561.2188 " fill="none" style="stroke:#181818;stroke-width:0.5;"/><rect fill="#E2E2F0" height="30.2969" rx="2.5" ry="2.5" style="stroke:#181818;stroke-width:0.5;" width="69.0225" x="115.2378" y="50"/><text fill="#000000" font-family="sans-serif" font-size="14" lengthAdjust="spacing" textLength="55.0225" x="122.2378" y="69.9951">asterisk</text><rect fill="#E2E2F0" height="30.2969" rx="2.5" ry="2.5" style="stroke:#181818;stroke-width:0.5;" width="69.0225" x="115.2378" y="486.4219"/><text fill="#000000" font-family="sans-serif" font-size="14" lengthAdjust="spacing" textLength="55.0225" x="122.2378" y="506.417">asterisk</text><rect fill="#E2E2F0" height="30.2969" rx="2.5" ry="2.5" style="stroke:#181818;stroke-width:0.5;" width="48.9932" x="319.2681" y="50"/><text fill="#000000" font-family="sans-serif" font-size="14" lengthAdjust="spacing" textLength="34.9932" x="326.2681" y="69.9951">amid</text><rect fill="#E2E2F0" height="30.2969" rx="2.5" ry="2.5" style="stroke:#181818;stroke-width:0.5;" width="48.9932" x="319.2681" y="486.4219"/><text fill="#000000" font-family="sans-serif" font-size="14" lengthAdjust="spacing" textLength="34.9932" x="326.2681" y="506.417">amid</text><rect fill="#E2E2F0" height="30.2969" rx="2.5" ry="2.5" style="stroke:#181818;stroke-width:0.5;" width="39.0537" x="518.2534" y="50"/><text fill="#000000" font-family="sans-serif" font-size="14" lengthAdjust="spacing" textLength="25.0537" x="525.2534" y="69.9951">bus</text><rect fill="#E2E2F0" height="30.2969" rx="2.5" ry="2.5" style="stroke:#181818;stroke-width:0.5;" width="39.0537" x="518.2534" y="486.4219"/><text fill="#000000" font-family="sans-serif" font-size="14" lengthAdjust="spacing" textLength="25.0537" x="525.2534" y="506.417">bus</text><rect fill="#E2E2F0" height="30.2969" rx="2.5" ry="2.5" style="stroke:#181818;stroke-width:0.5;" width="53.5254" x="705.0332" y="50"/><text fill="#000000" font-family="sans-serif" font-size="14" lengthAdjust="spacing" textLength="39.5254" x="712.0332" y="69.9951">chatd</text><rect fill="#E2E2F0" height="30.2969" rx="2.5" ry="2.5" style="stroke:#181818;stroke-width:0.5;" width="53.5254" x="705.0332" y="486.4219"/><text fill="#000000" font-family="sans-serif" font-size="14" lengthAdjust="spacing" textLength="39.5254" x="712.0332" y="506.417">chatd</text><rect fill="#E2E2F0" height="30.2969" rx="2.5" ry="2.5" style="stroke:#181818;stroke-width:0.5;" width="97.6035" x="768.5586" y="50"/><text fill="#000000" font-family="sans-serif" font-size="14" lengthAdjust="spacing" textLength="83.6035" x="775.5586" y="69.9951">websocketd</text><rect fill="#E2E2F0" height="30.2969" rx="2.5" ry="2.5" style="stroke:#181818;stroke-width:0.5;" width="97.6035" x="768.5586" y="486.4219"/><text fill="#000000" font-family="sans-serif" font-size="14" lengthAdjust="spacing" textLength="83.6035" x="775.5586" y="506.417">websocketd</text><text fill="#000000" font-family="sans-serif" font-size="14" lengthAdjust="spacing" textLength="27.0566" x="960.9385" y="77.9951">Bob</text><ellipse cx="977.4668" cy="13.5" fill="#E2E2F0" rx="8" ry="8" style="stroke:#181818;stroke-width:0.5;"/><path d="M977.4668,21.5 L977.4668,48.5 M964.4668,29.5 L990.4668,29.5 M977.4668,48.5 L964.4668,63.5 M977.4668,48.5 L990.4668,63.5 " fill="none" style="stroke:#181818;stroke-width:0.5;"/><text fill="#000000" font-family="sans-serif" font-size="14" lengthAdjust="spacing" textLength="27.0566" x="960.9385" y="499.417">Bob</text><ellipse cx="977.4668" cy="511.2188" fill="#E2E2F0" rx="8" ry="8" style="stroke:#181818;stroke-width:0.5;"/><path d="M977.4668,519.2188 L977.4668,546.2188 M964.4668,527.2188 L990.4668,527.2188 M977.4668,546.2188 L964.4668,561.2188 M977.4668,546.2188 L990.4668,561.2188 " fill="none" style="stroke:#181818;stroke-width:0.5;"/><polygon fill="#181818" points="137.749,108.4297,147.749,112.4297,137.749,116.4297,141.749,112.4297" style="stroke:#181818;stroke-width:1;"/><line style="stroke:#181818;stroke-width:1;" x1="39.8335" x2="143.749" y1="112.4297" y2="112.4297"/><text fill="#000000" font-family="sans-serif" font-size="13" lengthAdjust="spacing" textLength="85.9155" x="46.8335" y="107.3638">compose *10</text><path d="M105.2378,127.4297 L262.0962,127.4297 L262.0962,134.5625 L252.0962,144.5625 L105.2378,144.5625 L105.2378,127.4297 " fill="#EEEEEE" style="stroke:#000000;stroke-width:1.5;"/><rect fill="none" height="195.3281" style="stroke:#000000;stroke-width:1.5;" width="663.3208" x="105.2378" y="127.4297"/><text fill="#000000" font-family="sans-serif" font-size="13" font-weight="bold" lengthAdjust="spacing" textLength="111.8584" x="120.2378" y="140.4966">Internal events</text><polygon fill="#181818" points="331.7646,191.9609,341.7646,195.9609,331.7646,199.9609,335.7646,195.9609" style="stroke:#181818;stroke-width:1;"/><line style="stroke:#181818;stroke-width:1;stroke-dasharray:2.0,2.0;" x1="149.749" x2="337.7646" y1="195.9609" y2="195.9609"/><text fill="#000000" font-family="sans-serif" font-size="13" lengthAdjust="spacing" textLength="170.0156" x="156.749" y="160.6294">Event DeviceStateChange</text><text fill="#000000" font-family="sans-serif" font-size="13" lengthAdjust="spacing" textLength="111.6934" x="156.749" y="175.7622">name: PJSIP/alice</text><text fill="#000000" font-family="sans-serif" font-size="13" lengthAdjust="spacing" textLength="86.9946" x="156.749" y="190.895">state: ringing</text><polygon fill="#181818" points="525.7803,251.3594,535.7803,255.3594,525.7803,259.3594,529.7803,255.3594" style="stroke:#181818;stroke-width:1;"/><line style="stroke:#181818;stroke-width:1;stroke-dasharray:2.0,2.0;" x1="343.7646" x2="531.7803" y1="255.3594" y2="255.3594"/><text fill="#000000" font-family="sans-serif" font-size="13" lengthAdjust="spacing" textLength="170.0156" x="350.7646" y="220.0278">Event DeviceStateChange</text><text fill="#000000" font-family="sans-serif" font-size="13" lengthAdjust="spacing" textLength="111.6934" x="350.7646" y="235.1606">name: PJSIP/alice</text><text fill="#000000" font-family="sans-serif" font-size="13" lengthAdjust="spacing" textLength="86.9946" x="350.7646" y="250.2935">state: ringing</text><polygon fill="#181818" points="719.7959,310.7578,729.7959,314.7578,719.7959,318.7578,723.7959,314.7578" style="stroke:#181818;stroke-width:1;"/><line style="stroke:#181818;stroke-width:1;stroke-dasharray:2.0,2.0;" x1="537.7803" x2="725.7959" y1="314.7578" y2="314.7578"/><text fill="#000000" font-family="sans-serif" font-size="13" lengthAdjust="spacing" textLength="170.0156" x="544.7803" y="279.4263">Event DeviceStateChange</text><text fill="#000000" font-family="sans-serif" font-size="13" lengthAdjust="spacing" textLength="111.6934" x="544.7803" y="294.5591">name: PJSIP/alice</text><text fill="#000000" font-family="sans-serif" font-size="13" lengthAdjust="spacing" textLength="86.9946" x="544.7803" y="309.6919">state: ringing</text><path d="M10,336.7578 L226.4185,336.7578 L226.4185,343.8906 L216.4185,353.8906 L10,353.8906 L10,336.7578 " fill="#EEEEEE" style="stroke:#000000;stroke-width:1.5;"/><rect fill="none" height="133.6641" style="stroke:#000000;stroke-width:1.5;" width="993.9951" x="10" y="336.7578"/><text fill="#000000" font-family="sans-serif" font-size="13" font-weight="bold" lengthAdjust="spacing" textLength="171.4185" x="25" y="349.8247">Accent platform events</text><polygon fill="#181818" points="548.7803,371.0234,538.7803,375.0234,548.7803,379.0234,544.7803,375.0234" style="stroke:#181818;stroke-width:1;"/><line style="stroke:#181818;stroke-width:1;" x1="542.7803" x2="730.7959" y1="375.0234" y2="375.0234"/><text fill="#000000" font-family="sans-serif" font-size="13" lengthAdjust="spacing" textLength="136.1064" x="554.7803" y="369.9575">Event Presence Alice</text><polygon fill="#181818" points="805.3604,400.1563,815.3604,404.1563,805.3604,408.1563,809.3604,404.1563" style="stroke:#181818;stroke-width:1;"/><line style="stroke:#181818;stroke-width:1;stroke-dasharray:2.0,2.0;" x1="537.7803" x2="811.3604" y1="404.1563" y2="404.1563"/><text fill="#000000" font-family="sans-serif" font-size="13" lengthAdjust="spacing" textLength="136.1064" x="544.7803" y="399.0903">Event Presence Alice</text><polygon fill="#181818" points="965.4668,429.2891,975.4668,433.2891,965.4668,437.2891,969.4668,433.2891" style="stroke:#181818;stroke-width:1;"/><line style="stroke:#181818;stroke-width:1;" x1="817.3604" x2="971.4668" y1="433.2891" y2="433.2891"/><text fill="#000000" font-family="sans-serif" font-size="13" lengthAdjust="spacing" textLength="136.1064" x="824.3604" y="428.2231">Event Presence Alice</text><polygon fill="#181818" points="50.8335,458.4219,40.8335,462.4219,50.8335,466.4219,46.8335,462.4219" style="stroke:#181818;stroke-width:1;"/><line style="stroke:#181818;stroke-width:1;" x1="44.8335" x2="816.3604" y1="462.4219" y2="462.4219"/><text fill="#000000" font-family="sans-serif" font-size="13" lengthAdjust="spacing" textLength="136.1064" x="56.8335" y="457.356">Event Presence Alice</text><!--SRC=[fP4_3y8W4CLtFiND9aPT6KpyDzIfILUNAvnjq_PeWDQlBs1guz39X11oz_Yzuu7A6mkdhb4aqWxR8w3pP1lNIb2c7umZs1psGbJMZ0Da79gC7T14x9s0hnosyMxVQ0cts8ChJO5OUFHqgP4hUZ1ZJnBoUv7bEun-3tQnBy4sN8KLUG6HMENe9Fp72eY4KZLw_H-CM8ivX9DIaJDqw9_6zaiMoGVcsJzkkIL77ABznBmCzQBI6TMIrwjIJFzpDcKuB_9e46ghjtwLgRgYZOzw0m00]--></g></svg>