<svg xmlns="http://www.w3.org/2000/svg" xmlns:xlink="http://www.w3.org/1999/xlink" contentStyleType="text/css" height="363px" preserveAspectRatio="none" style="width:477px;height:363px;background:#FFFFFF;" version="1.1" viewBox="0 0 477 363" width="477px" zoomAndPan="magnify"><defs/><g><line style="stroke:#181818;stroke-width:0.5;stroke-dasharray:5.0,5.0;" x1="33" x2="33" y1="36.2969" y2="328.3594"/><line style="stroke:#181818;stroke-width:0.5;stroke-dasharray:5.0,5.0;" x1="210.4824" x2="210.4824" y1="36.2969" y2="328.3594"/><line style="stroke:#181818;stroke-width:0.5;stroke-dasharray:5.0,5.0;" x1="342.7905" x2="342.7905" y1="36.2969" y2="328.3594"/><line style="stroke:#181818;stroke-width:0.5;stroke-dasharray:5.0,5.0;" x1="398.605" x2="398.605" y1="36.2969" y2="328.3594"/><line style="stroke:#181818;stroke-width:0.5;stroke-dasharray:5.0,5.0;" x1="451.4263" x2="451.4263" y1="36.2969" y2="328.3594"/><rect fill="#E2E2F0" height="30.2969" rx="2.5" ry="2.5" style="stroke:#181818;stroke-width:0.5;" width="57.8662" x="5" y="5"/><text fill="#000000" font-family="sans-serif" font-size="14" lengthAdjust="spacing" textLength="43.8662" x="12" y="24.9951">admin</text><rect fill="#E2E2F0" height="30.2969" rx="2.5" ry="2.5" style="stroke:#181818;stroke-width:0.5;" width="57.8662" x="5" y="327.3594"/><text fill="#000000" font-family="sans-serif" font-size="14" lengthAdjust="spacing" textLength="43.8662" x="12" y="347.3545">admin</text><rect fill="#E2E2F0" height="30.2969" rx="2.5" ry="2.5" style="stroke:#181818;stroke-width:0.5;" width="66.1855" x="177.4824" y="5"/><text fill="#000000" font-family="sans-serif" font-size="14" lengthAdjust="spacing" textLength="52.1855" x="184.4824" y="24.9951">plugind</text><rect fill="#E2E2F0" height="30.2969" rx="2.5" ry="2.5" style="stroke:#181818;stroke-width:0.5;" width="66.1855" x="177.4824" y="327.3594"/><text fill="#000000" font-family="sans-serif" font-size="14" lengthAdjust="spacing" textLength="52.1855" x="184.4824" y="347.3545">plugind</text><rect fill="#E2E2F0" height="30.2969" rx="2.5" ry="2.5" style="stroke:#181818;stroke-width:0.5;" width="45.8145" x="320.7905" y="5"/><text fill="#000000" font-family="sans-serif" font-size="14" lengthAdjust="spacing" textLength="31.8145" x="327.7905" y="24.9951">auth</text><rect fill="#E2E2F0" height="30.2969" rx="2.5" ry="2.5" style="stroke:#181818;stroke-width:0.5;" width="45.8145" x="320.7905" y="327.3594"/><text fill="#000000" font-family="sans-serif" font-size="14" lengthAdjust="spacing" textLength="31.8145" x="327.7905" y="347.3545">auth</text><rect fill="#E2E2F0" height="30.2969" rx="2.5" ry="2.5" style="stroke:#181818;stroke-width:0.5;" width="45.8213" x="376.605" y="5"/><text fill="#000000" font-family="sans-serif" font-size="14" lengthAdjust="spacing" textLength="31.8213" x="383.605" y="24.9951">repo</text><rect fill="#E2E2F0" height="30.2969" rx="2.5" ry="2.5" style="stroke:#181818;stroke-width:0.5;" width="45.8213" x="376.605" y="327.3594"/><text fill="#000000" font-family="sans-serif" font-size="14" lengthAdjust="spacing" textLength="31.8213" x="383.605" y="347.3545">repo</text><rect fill="#E2E2F0" height="30.2969" rx="2.5" ry="2.5" style="stroke:#181818;stroke-width:0.5;" width="39.0537" x="432.4263" y="5"/><text fill="#000000" font-family="sans-serif" font-size="14" lengthAdjust="spacing" textLength="25.0537" x="439.4263" y="24.9951">bus</text><rect fill="#E2E2F0" height="30.2969" rx="2.5" ry="2.5" style="stroke:#181818;stroke-width:0.5;" width="39.0537" x="432.4263" y="327.3594"/><text fill="#000000" font-family="sans-serif" font-size="14" lengthAdjust="spacing" textLength="25.0537" x="439.4263" y="347.3545">bus</text><polygon fill="#181818" points="198.5752,63.4297,208.5752,67.4297,198.5752,71.4297,202.5752,67.4297" style="stroke:#181818;stroke-width:1;"/><line style="stroke:#181818;stroke-width:1;" x1="33.9331" x2="204.5752" y1="67.4297" y2="67.4297"/><text fill="#000000" font-family="sans-serif" font-size="13" lengthAdjust="spacing" textLength="152.6421" x="40.9331" y="62.3638">install plugin &lt;git URI&gt;</text><polygon fill="#181818" points="331.6978,92.5625,341.6978,96.5625,331.6978,100.5625,335.6978,96.5625" style="stroke:#181818;stroke-width:1;"/><line style="stroke:#181818;stroke-width:1;" x1="210.5752" x2="337.6978" y1="96.5625" y2="96.5625"/><text fill="#000000" font-family="sans-serif" font-size="13" lengthAdjust="spacing" textLength="109.1226" x="217.5752" y="91.4966">authorize token?</text><polygon fill="#181818" points="44.9331,121.6953,34.9331,125.6953,44.9331,129.6953,40.9331,125.6953" style="stroke:#181818;stroke-width:1;"/><line style="stroke:#181818;stroke-width:1;" x1="38.9331" x2="209.5752" y1="125.6953" y2="125.6953"/><text fill="#000000" font-family="sans-serif" font-size="13" lengthAdjust="spacing" textLength="24.813" x="50.9331" y="120.6294">201</text><polygon fill="#181818" points="387.5156,150.8281,397.5156,154.8281,387.5156,158.8281,391.5156,154.8281" style="stroke:#181818;stroke-width:1;"/><line style="stroke:#181818;stroke-width:1;" x1="210.5752" x2="393.5156" y1="154.8281" y2="154.8281"/><text fill="#000000" font-family="sans-serif" font-size="13" lengthAdjust="spacing" textLength="125.436" x="217.5752" y="149.7622">git clone &lt;git URI&gt;</text><line style="stroke:#181818;stroke-width:1;" x1="210.5752" x2="252.5752" y1="183.9609" y2="183.9609"/><line style="stroke:#181818;stroke-width:1;" x1="252.5752" x2="252.5752" y1="183.9609" y2="196.9609"/><line style="stroke:#181818;stroke-width:1;" x1="211.5752" x2="252.5752" y1="196.9609" y2="196.9609"/><polygon fill="#181818" points="221.5752,192.9609,211.5752,196.9609,221.5752,200.9609,217.5752,196.9609" style="stroke:#181818;stroke-width:1;"/><text fill="#000000" font-family="sans-serif" font-size="13" lengthAdjust="spacing" textLength="31.9668" x="217.5752" y="178.895">build</text><line style="stroke:#181818;stroke-width:1;" x1="210.5752" x2="252.5752" y1="226.0938" y2="226.0938"/><line style="stroke:#181818;stroke-width:1;" x1="252.5752" x2="252.5752" y1="226.0938" y2="239.0938"/><line style="stroke:#181818;stroke-width:1;" x1="211.5752" x2="252.5752" y1="239.0938" y2="239.0938"/><polygon fill="#181818" points="221.5752,235.0938,211.5752,239.0938,221.5752,243.0938,217.5752,239.0938" style="stroke:#181818;stroke-width:1;"/><text fill="#000000" font-family="sans-serif" font-size="13" lengthAdjust="spacing" textLength="55.1104" x="217.5752" y="221.0278">package</text><line style="stroke:#181818;stroke-width:1;" x1="210.5752" x2="252.5752" y1="268.2266" y2="268.2266"/><line style="stroke:#181818;stroke-width:1;" x1="252.5752" x2="252.5752" y1="268.2266" y2="281.2266"/><line style="stroke:#181818;stroke-width:1;" x1="211.5752" x2="252.5752" y1="281.2266" y2="281.2266"/><polygon fill="#181818" points="221.5752,277.2266,211.5752,281.2266,221.5752,285.2266,217.5752,281.2266" style="stroke:#181818;stroke-width:1;"/><text fill="#000000" font-family="sans-serif" font-size="13" lengthAdjust="spacing" textLength="38.9111" x="217.5752" y="263.1606">install</text><polygon fill="#181818" points="439.9531,306.3594,449.9531,310.3594,439.9531,314.3594,443.9531,310.3594" style="stroke:#181818;stroke-width:1;"/><line style="stroke:#181818;stroke-width:1;" x1="210.5752" x2="445.9531" y1="310.3594" y2="310.3594"/><text fill="#000000" font-family="sans-serif" font-size="13" lengthAdjust="spacing" textLength="153.1753" x="217.5752" y="305.2935">install completed event</text><!--SRC=[ROyn2iCm34Ntd48NABGTJKddheKUmB65AwB89f4pzFJ5nIGfUD7mt-FpPVr40gSU4kT0uWsGB6gPQm2tG0glvwFlgb5ac_LjVZVEz47GEABS_upIQ-1wlXpJ6LCqK1eTHy5s-RPaoCI-IP9remtOP7N_aGrvsVzoSKgCYXvmHT7k2m00]--></g></svg>