<svg xmlns="http://www.w3.org/2000/svg" xmlns:xlink="http://www.w3.org/1999/xlink" contentStyleType="text/css" height="559px" preserveAspectRatio="none" style="width:926px;height:559px;background:#FFFFFF;" version="1.1" viewBox="0 0 926 559" width="926px" zoomAndPan="magnify"><defs/><g><line style="stroke:#181818;stroke-width:0.5;stroke-dasharray:5.0,5.0;" x1="30" x2="30" y1="81.2969" y2="478.8906"/><line style="stroke:#181818;stroke-width:0.5;stroke-dasharray:5.0,5.0;" x1="146.6514" x2="146.6514" y1="81.2969" y2="478.8906"/><line style="stroke:#181818;stroke-width:0.5;stroke-dasharray:5.0,5.0;" x1="264.5649" x2="264.5649" y1="81.2969" y2="478.8906"/><line style="stroke:#181818;stroke-width:0.5;stroke-dasharray:5.0,5.0;" x1="379.5044" x2="379.5044" y1="81.2969" y2="478.8906"/><line style="stroke:#181818;stroke-width:0.5;stroke-dasharray:5.0,5.0;" x1="447.2759" x2="447.2759" y1="81.2969" y2="478.8906"/><line style="stroke:#181818;stroke-width:0.5;stroke-dasharray:5.0,5.0;" x1="568.9478" x2="568.9478" y1="81.2969" y2="478.8906"/><line style="stroke:#181818;stroke-width:0.5;stroke-dasharray:5.0,5.0;" x1="665.9028" x2="665.9028" y1="81.2969" y2="478.8906"/><line style="stroke:#181818;stroke-width:0.5;stroke-dasharray:5.0,5.0;" x1="759.9614" x2="759.9614" y1="81.2969" y2="478.8906"/><line style="stroke:#181818;stroke-width:0.5;stroke-dasharray:5.0,5.0;" x1="903.2529" x2="903.2529" y1="81.2969" y2="478.8906"/><text fill="#000000" font-family="sans-serif" font-size="14" lengthAdjust="spacing" textLength="44.8643" x="5" y="77.9951">Admin</text><ellipse cx="30.4321" cy="13.5" fill="#E2E2F0" rx="8" ry="8" style="stroke:#181818;stroke-width:0.5;"/><path d="M30.4321,21.5 L30.4321,48.5 M17.4321,29.5 L43.4321,29.5 M30.4321,48.5 L17.4321,63.5 M30.4321,48.5 L43.4321,63.5 " fill="none" style="stroke:#181818;stroke-width:0.5;"/><text fill="#000000" font-family="sans-serif" font-size="14" lengthAdjust="spacing" textLength="44.8643" x="5" y="490.8857">Admin</text><ellipse cx="30.4321" cy="502.6875" fill="#E2E2F0" rx="8" ry="8" style="stroke:#181818;stroke-width:0.5;"/><path d="M30.4321,510.6875 L30.4321,537.6875 M17.4321,518.6875 L43.4321,518.6875 M30.4321,537.6875 L17.4321,552.6875 M30.4321,537.6875 L43.4321,552.6875 " fill="none" style="stroke:#181818;stroke-width:0.5;"/><rect fill="#E2E2F0" height="30.2969" rx="2.5" ry="2.5" style="stroke:#181818;stroke-width:0.5;" width="52.9512" x="120.6514" y="50"/><text fill="#000000" font-family="sans-serif" font-size="14" lengthAdjust="spacing" textLength="38.9512" x="127.6514" y="69.9951">confd</text><rect fill="#E2E2F0" height="30.2969" rx="2.5" ry="2.5" style="stroke:#181818;stroke-width:0.5;" width="52.9512" x="120.6514" y="477.8906"/><text fill="#000000" font-family="sans-serif" font-size="14" lengthAdjust="spacing" textLength="38.9512" x="127.6514" y="497.8857">confd</text><rect fill="#E2E2F0" height="30.2969" rx="2.5" ry="2.5" style="stroke:#181818;stroke-width:0.5;" width="45.8145" x="242.5649" y="50"/><text fill="#000000" font-family="sans-serif" font-size="14" lengthAdjust="spacing" textLength="31.8145" x="249.5649" y="69.9951">auth</text><rect fill="#E2E2F0" height="30.2969" rx="2.5" ry="2.5" style="stroke:#181818;stroke-width:0.5;" width="45.8145" x="242.5649" y="477.8906"/><text fill="#000000" font-family="sans-serif" font-size="14" lengthAdjust="spacing" textLength="31.8145" x="249.5649" y="497.8857">auth</text><rect fill="#E2E2F0" height="30.2969" rx="2.5" ry="2.5" style="stroke:#181818;stroke-width:0.5;" width="39.7715" x="360.5044" y="50"/><text fill="#000000" font-family="sans-serif" font-size="14" lengthAdjust="spacing" textLength="25.7715" x="367.5044" y="69.9951">Bus</text><rect fill="#E2E2F0" height="30.2969" rx="2.5" ry="2.5" style="stroke:#181818;stroke-width:0.5;" width="39.7715" x="360.5044" y="477.8906"/><text fill="#000000" font-family="sans-serif" font-size="14" lengthAdjust="spacing" textLength="25.7715" x="367.5044" y="497.8857">Bus</text><rect fill="#E2E2F0" height="30.2969" rx="2.5" ry="2.5" style="stroke:#181818;stroke-width:0.5;" width="75.8242" x="410.2759" y="50"/><text fill="#000000" font-family="sans-serif" font-size="14" lengthAdjust="spacing" textLength="61.8242" x="417.2759" y="69.9951">sysconfd</text><rect fill="#E2E2F0" height="30.2969" rx="2.5" ry="2.5" style="stroke:#181818;stroke-width:0.5;" width="75.8242" x="410.2759" y="477.8906"/><text fill="#000000" font-family="sans-serif" font-size="14" lengthAdjust="spacing" textLength="61.8242" x="417.2759" y="497.8857">sysconfd</text><rect fill="#E2E2F0" height="30.2969" rx="2.5" ry="2.5" style="stroke:#181818;stroke-width:0.5;" width="70.0205" x="533.9478" y="50"/><text fill="#000000" font-family="sans-serif" font-size="14" lengthAdjust="spacing" textLength="56.0205" x="540.9478" y="69.9951">Asterisk</text><rect fill="#E2E2F0" height="30.2969" rx="2.5" ry="2.5" style="stroke:#181818;stroke-width:0.5;" width="70.0205" x="533.9478" y="477.8906"/><text fill="#000000" font-family="sans-serif" font-size="14" lengthAdjust="spacing" textLength="56.0205" x="540.9478" y="497.8857">Asterisk</text><rect fill="#E2E2F0" height="30.2969" rx="2.5" ry="2.5" style="stroke:#181818;stroke-width:0.5;" width="89.0586" x="621.9028" y="50"/><text fill="#000000" font-family="sans-serif" font-size="14" lengthAdjust="spacing" textLength="75.0586" x="628.9028" y="69.9951">Filesystem</text><rect fill="#E2E2F0" height="30.2969" rx="2.5" ry="2.5" style="stroke:#181818;stroke-width:0.5;" width="89.0586" x="621.9028" y="477.8906"/><text fill="#000000" font-family="sans-serif" font-size="14" lengthAdjust="spacing" textLength="75.0586" x="628.9028" y="497.8857">Filesystem</text><rect fill="#E2E2F0" height="30.2969" rx="2.5" ry="2.5" style="stroke:#181818;stroke-width:0.5;" width="79.3242" x="720.9614" y="50"/><text fill="#000000" font-family="sans-serif" font-size="14" lengthAdjust="spacing" textLength="65.3242" x="727.9614" y="69.9951">confgend</text><rect fill="#E2E2F0" height="30.2969" rx="2.5" ry="2.5" style="stroke:#181818;stroke-width:0.5;" width="79.3242" x="720.9614" y="477.8906"/><text fill="#000000" font-family="sans-serif" font-size="14" lengthAdjust="spacing" textLength="65.3242" x="727.9614" y="497.8857">confgend</text><rect fill="#E2E2F0" height="30.2969" rx="2.5" ry="2.5" style="stroke:#181818;stroke-width:0.5;" width="34.3848" x="886.2529" y="50"/><text fill="#000000" font-family="sans-serif" font-size="14" lengthAdjust="spacing" textLength="20.3848" x="893.2529" y="69.9951">DB</text><rect fill="#E2E2F0" height="30.2969" rx="2.5" ry="2.5" style="stroke:#181818;stroke-width:0.5;" width="34.3848" x="886.2529" y="477.8906"/><text fill="#000000" font-family="sans-serif" font-size="14" lengthAdjust="spacing" textLength="20.3848" x="893.2529" y="497.8857">DB</text><polygon fill="#181818" points="135.127,108.4297,145.127,112.4297,135.127,116.4297,139.127,112.4297" style="stroke:#181818;stroke-width:1;"/><line style="stroke:#181818;stroke-width:1;" x1="30.4321" x2="141.127" y1="112.4297" y2="112.4297"/><text fill="#000000" font-family="sans-serif" font-size="13" lengthAdjust="spacing" textLength="92.6948" x="37.4321" y="107.3638">edit extension</text><polygon fill="#181818" points="253.4722,137.5625,263.4722,141.5625,253.4722,145.5625,257.4722,141.5625" style="stroke:#181818;stroke-width:1;"/><line style="stroke:#181818;stroke-width:1;" x1="147.127" x2="259.4722" y1="141.5625" y2="141.5625"/><text fill="#000000" font-family="sans-serif" font-size="13" lengthAdjust="spacing" textLength="94.3452" x="154.127" y="136.4966">Validate token</text><polygon fill="#181818" points="158.127,166.6953,148.127,170.6953,158.127,174.6953,154.127,170.6953" style="stroke:#181818;stroke-width:1;"/><line style="stroke:#181818;stroke-width:1;stroke-dasharray:2.0,2.0;" x1="152.127" x2="264.4722" y1="170.6953" y2="170.6953"/><text fill="#000000" font-family="sans-serif" font-size="13" lengthAdjust="spacing" textLength="33.7759" x="164.127" y="165.6294">allow</text><polygon fill="#181818" points="368.3901,195.8281,378.3901,199.8281,368.3901,203.8281,372.3901,199.8281" style="stroke:#181818;stroke-width:1;"/><line style="stroke:#181818;stroke-width:1;" x1="147.127" x2="374.3901" y1="199.8281" y2="199.8281"/><text fill="#000000" font-family="sans-serif" font-size="13" lengthAdjust="spacing" textLength="209.2632" x="154.127" y="194.7622">send message extension_edited</text><polygon fill="#181818" points="436.188,224.9609,446.188,228.9609,436.188,232.9609,440.188,228.9609" style="stroke:#181818;stroke-width:1;"/><line style="stroke:#181818;stroke-width:1;" x1="147.127" x2="442.188" y1="228.9609" y2="228.9609"/><text fill="#000000" font-family="sans-serif" font-size="13" lengthAdjust="spacing" textLength="149.7729" x="154.127" y="223.895">HTTP request to reload</text><polygon fill="#181818" points="556.958,254.0938,566.958,258.0938,556.958,262.0938,560.958,258.0938" style="stroke:#181818;stroke-width:1;"/><line style="stroke:#181818;stroke-width:1;" x1="448.188" x2="562.958" y1="258.0938" y2="258.0938"/><text fill="#000000" font-family="sans-serif" font-size="13" lengthAdjust="spacing" textLength="96.77" x="455.188" y="253.0278">dialplan reload</text><polygon fill="#181818" points="654.4321,283.2266,664.4321,287.2266,654.4321,291.2266,658.4321,287.2266" style="stroke:#181818;stroke-width:1;"/><line style="stroke:#181818;stroke-width:1;" x1="568.958" x2="660.4321" y1="287.2266" y2="287.2266"/><text fill="#000000" font-family="sans-serif" font-size="13" lengthAdjust="spacing" textLength="73.4741" x="575.958" y="282.1606">read config</text><polygon fill="#181818" points="579.958,312.3594,569.958,316.3594,579.958,320.3594,575.958,316.3594" style="stroke:#181818;stroke-width:1;"/><line style="stroke:#181818;stroke-width:1;stroke-dasharray:2.0,2.0;" x1="573.958" x2="665.4321" y1="316.3594" y2="316.3594"/><text fill="#000000" font-family="sans-serif" font-size="13" lengthAdjust="spacing" textLength="64.8857" x="585.958" y="311.2935">command</text><polygon fill="#181818" points="748.6235,341.4922,758.6235,345.4922,748.6235,349.4922,752.6235,345.4922" style="stroke:#181818;stroke-width:1;"/><line style="stroke:#181818;stroke-width:1;" x1="568.958" x2="754.6235" y1="345.4922" y2="345.4922"/><text fill="#000000" font-family="sans-serif" font-size="13" lengthAdjust="spacing" textLength="121.1895" x="575.958" y="340.4263">execute command</text><polygon fill="#181818" points="891.4453,355.4922,901.4453,359.4922,891.4453,363.4922,895.4453,359.4922" style="stroke:#181818;stroke-width:1;"/><line style="stroke:#181818;stroke-width:1;" x1="147.127" x2="897.4453" y1="359.4922" y2="359.4922"/><polygon fill="#181818" points="891.4453,384.625,901.4453,388.625,891.4453,392.625,895.4453,388.625" style="stroke:#181818;stroke-width:1;"/><line style="stroke:#181818;stroke-width:1;" x1="760.6235" x2="897.4453" y1="388.625" y2="388.625"/><text fill="#000000" font-family="sans-serif" font-size="13" lengthAdjust="spacing" textLength="118.8218" x="767.6235" y="383.5591">retrieve extension</text><polygon fill="#181818" points="771.6235,398.625,761.6235,402.625,771.6235,406.625,767.6235,402.625" style="stroke:#181818;stroke-width:1;"/><line style="stroke:#181818;stroke-width:1;stroke-dasharray:2.0,2.0;" x1="765.6235" x2="902.4453" y1="402.625" y2="402.625"/><polygon fill="#181818" points="579.958,427.7578,569.958,431.7578,579.958,435.7578,575.958,431.7578" style="stroke:#181818;stroke-width:1;"/><line style="stroke:#181818;stroke-width:1;stroke-dasharray:2.0,2.0;" x1="573.958" x2="759.6235" y1="431.7578" y2="431.7578"/><text fill="#000000" font-family="sans-serif" font-size="13" lengthAdjust="spacing" textLength="89.7559" x="585.958" y="426.6919">stream config</text><polygon fill="#181818" points="41.4321,456.8906,31.4321,460.8906,41.4321,464.8906,37.4321,460.8906" style="stroke:#181818;stroke-width:1;"/><line style="stroke:#181818;stroke-width:1;stroke-dasharray:2.0,2.0;" x1="35.4321" x2="146.127" y1="460.8906" y2="460.8906"/><text fill="#000000" font-family="sans-serif" font-size="13" lengthAdjust="spacing" textLength="18.7573" x="47.4321" y="455.8247">OK</text><!--SRC=[LP5DJWCn38NtEOKlq0jaWTHHLI6nW4N5jh8cPh2Q7nXxeBqzyT0qxIg9_JtxsS5HompRa3WxjnwmUOAnv8_WWG8hq5af2vVirgYbST5F3-yOEQ0IQ3bHTXQ4JHTZZEMtQuP5F0Zb08b4SA9U-6XzA7HMBd8jydmulC5Ctmk9rZxr6Wi6rm23jw8qivmy1CRu5J4tgcMCsdEagb9AlgOnh2vvSZs-Uk_5nf8IviSYffdg27KpPngNEdgZRcvsWslK_zFQwSpqSpUmsmstJHbv9tdm85gjfcRrsiC8-oSFho_k3m00]--></g></svg>