<svg xmlns="http://www.w3.org/2000/svg" xmlns:xlink="http://www.w3.org/1999/xlink" contentStyleType="text/css" height="972px" preserveAspectRatio="none" style="width:731px;height:972px;background:#FFFFFF;" version="1.1" viewBox="0 0 731 972" width="731px" zoomAndPan="magnify"><defs/><g><line style="stroke:#181818;stroke-width:0.5;stroke-dasharray:5.0,5.0;" x1="28" x2="28" y1="36.2969" y2="937.0781"/><line style="stroke:#181818;stroke-width:0.5;stroke-dasharray:5.0,5.0;" x1="698.5747" x2="698.5747" y1="36.2969" y2="937.0781"/><rect fill="#E2E2F0" height="30.2969" rx="2.5" ry="2.5" style="stroke:#181818;stroke-width:0.5;" width="47.667" x="5" y="5"/><text fill="#000000" font-family="sans-serif" font-size="14" lengthAdjust="spacing" textLength="33.667" x="12" y="24.9951">Alice</text><rect fill="#E2E2F0" height="30.2969" rx="2.5" ry="2.5" style="stroke:#181818;stroke-width:0.5;" width="47.667" x="5" y="936.0781"/><text fill="#000000" font-family="sans-serif" font-size="14" lengthAdjust="spacing" textLength="33.667" x="12" y="956.0732">Alice</text><rect fill="#E2E2F0" height="30.2969" rx="2.5" ry="2.5" style="stroke:#181818;stroke-width:0.5;" width="52.9512" x="672.5747" y="5"/><text fill="#000000" font-family="sans-serif" font-size="14" lengthAdjust="spacing" textLength="38.9512" x="679.5747" y="24.9951">confd</text><rect fill="#E2E2F0" height="30.2969" rx="2.5" ry="2.5" style="stroke:#181818;stroke-width:0.5;" width="52.9512" x="672.5747" y="936.0781"/><text fill="#000000" font-family="sans-serif" font-size="14" lengthAdjust="spacing" textLength="38.9512" x="679.5747" y="956.0732">confd</text><polygon fill="#181818" points="687.0503,93.6953,697.0503,97.6953,687.0503,101.6953,691.0503,97.6953" style="stroke:#181818;stroke-width:1;"/><line style="stroke:#181818;stroke-width:1;" x1="28.8335" x2="693.0503" y1="97.6953" y2="97.6953"/><text fill="#000000" font-family="sans-serif" font-size="13" font-weight="bold" lengthAdjust="spacing" textLength="83.9097" x="35.8335" y="62.3638">Create Line</text><text fill="#000000" font-family="sans-serif" font-size="13" lengthAdjust="spacing" textLength="73.0107" x="35.8335" y="77.4966">POST /lines</text><text fill="#000000" font-family="sans-serif" font-size="13" lengthAdjust="spacing" textLength="327.8755" x="35.8335" y="92.6294">{"context": "ctx-&lt;tenant slug&gt;-internal-&lt;uuid&gt;"}</text><polygon fill="#181818" points="39.8335,122.8281,29.8335,126.8281,39.8335,130.8281,35.8335,126.8281" style="stroke:#181818;stroke-width:1;"/><line style="stroke:#181818;stroke-width:1;stroke-dasharray:2.0,2.0;" x1="33.8335" x2="698.0503" y1="126.8281" y2="126.8281"/><text fill="#000000" font-family="sans-serif" font-size="13" lengthAdjust="spacing" textLength="86.0806" x="45.8335" y="121.7622">{"id": 11, ...}</text><polygon fill="#181818" points="687.0503,182.2266,697.0503,186.2266,687.0503,190.2266,691.0503,186.2266" style="stroke:#181818;stroke-width:1;"/><line style="stroke:#181818;stroke-width:1;" x1="28.8335" x2="693.0503" y1="186.2266" y2="186.2266"/><text fill="#000000" font-family="sans-serif" font-size="13" font-weight="bold" lengthAdjust="spacing" textLength="147.5195" x="35.8335" y="150.895">Create an extension</text><text fill="#000000" font-family="sans-serif" font-size="13" lengthAdjust="spacing" textLength="113.1533" x="35.8335" y="166.0278">POST /extensions</text><text fill="#000000" font-family="sans-serif" font-size="13" lengthAdjust="spacing" textLength="438.6802" x="35.8335" y="181.1606">{"exten": "1234", "context": "ctx-&lt;tenant slug&gt;-internal-&lt;uuid&gt;"}</text><polygon fill="#181818" points="39.8335,211.3594,29.8335,215.3594,39.8335,219.3594,35.8335,215.3594" style="stroke:#181818;stroke-width:1;"/><line style="stroke:#181818;stroke-width:1;stroke-dasharray:2.0,2.0;" x1="33.8335" x2="698.0503" y1="215.3594" y2="215.3594"/><text fill="#000000" font-family="sans-serif" font-size="13" lengthAdjust="spacing" textLength="86.0806" x="45.8335" y="210.2935">{"id": 22, ...}</text><polygon fill="#181818" points="687.0503,255.625,697.0503,259.625,687.0503,263.625,691.0503,259.625" style="stroke:#181818;stroke-width:1;"/><line style="stroke:#181818;stroke-width:1;" x1="28.8335" x2="693.0503" y1="259.625" y2="259.625"/><text fill="#000000" font-family="sans-serif" font-size="13" font-weight="bold" lengthAdjust="spacing" textLength="208.019" x="35.8335" y="239.4263">Associate the line-extension</text><text fill="#000000" font-family="sans-serif" font-size="13" lengthAdjust="spacing" textLength="180.6416" x="35.8335" y="254.5591">PUT /lines/11/extensions/22</text><polygon fill="#181818" points="39.8335,269.625,29.8335,273.625,39.8335,277.625,35.8335,273.625" style="stroke:#181818;stroke-width:1;"/><line style="stroke:#181818;stroke-width:1;stroke-dasharray:2.0,2.0;" x1="33.8335" x2="698.0503" y1="273.625" y2="273.625"/><polygon fill="#181818" points="687.0503,329.0234,697.0503,333.0234,687.0503,337.0234,691.0503,333.0234" style="stroke:#181818;stroke-width:1;"/><line style="stroke:#181818;stroke-width:1;" x1="28.8335" x2="693.0503" y1="333.0234" y2="333.0234"/><text fill="#000000" font-family="sans-serif" font-size="13" font-weight="bold" lengthAdjust="spacing" textLength="98.6172" x="35.8335" y="297.6919">Create a user</text><text fill="#000000" font-family="sans-serif" font-size="13" lengthAdjust="spacing" textLength="77.9048" x="35.8335" y="312.8247">POST /users</text><text fill="#000000" font-family="sans-serif" font-size="13" lengthAdjust="spacing" textLength="142.5049" x="35.8335" y="327.9575">{"firstname": "Alice"}</text><polygon fill="#181818" points="39.8335,358.1563,29.8335,362.1563,39.8335,366.1563,35.8335,362.1563" style="stroke:#181818;stroke-width:1;"/><line style="stroke:#181818;stroke-width:1;" x1="33.8335" x2="698.0503" y1="362.1563" y2="362.1563"/><text fill="#000000" font-family="sans-serif" font-size="13" lengthAdjust="spacing" textLength="181.2319" x="45.8335" y="357.0903">{"uuid": "44444444-...", ...}</text><polygon fill="#181818" points="687.0503,402.4219,697.0503,406.4219,687.0503,410.4219,691.0503,406.4219" style="stroke:#181818;stroke-width:1;"/><line style="stroke:#181818;stroke-width:1;" x1="28.8335" x2="693.0503" y1="406.4219" y2="406.4219"/><text fill="#000000" font-family="sans-serif" font-size="13" font-weight="bold" lengthAdjust="spacing" textLength="168.3716" x="35.8335" y="386.2231">Associate the user-line</text><text fill="#000000" font-family="sans-serif" font-size="13" lengthAdjust="spacing" textLength="212.1069" x="35.8335" y="401.356">PUT /users/44444444-.../lines/11</text><polygon fill="#181818" points="39.8335,416.4219,29.8335,420.4219,39.8335,424.4219,35.8335,420.4219" style="stroke:#181818;stroke-width:1;"/><line style="stroke:#181818;stroke-width:1;" x1="33.8335" x2="698.0503" y1="420.4219" y2="420.4219"/><polygon fill="#181818" points="687.0503,475.8203,697.0503,479.8203,687.0503,483.8203,691.0503,479.8203" style="stroke:#181818;stroke-width:1;"/><line style="stroke:#181818;stroke-width:1;" x1="28.8335" x2="693.0503" y1="479.8203" y2="479.8203"/><text fill="#000000" font-family="sans-serif" font-size="13" font-weight="bold" lengthAdjust="spacing" textLength="175.7031" x="35.8335" y="444.4888">Create the SIP endpoint</text><text fill="#000000" font-family="sans-serif" font-size="13" lengthAdjust="spacing" textLength="130.2095" x="35.8335" y="459.6216">POST /endpoints/sip</text><text fill="#000000" font-family="sans-serif" font-size="13" lengthAdjust="spacing" textLength="16.542" x="35.8335" y="474.7544">{}</text><polygon fill="#181818" points="39.8335,504.9531,29.8335,508.9531,39.8335,512.9531,35.8335,508.9531" style="stroke:#181818;stroke-width:1;"/><line style="stroke:#181818;stroke-width:1;" x1="33.8335" x2="698.0503" y1="508.9531" y2="508.9531"/><text fill="#000000" font-family="sans-serif" font-size="13" lengthAdjust="spacing" textLength="86.0806" x="45.8335" y="503.8872">{"id": 66, ...}</text><polygon fill="#181818" points="687.0503,549.2188,697.0503,553.2188,687.0503,557.2188,691.0503,553.2188" style="stroke:#181818;stroke-width:1;"/><line style="stroke:#181818;stroke-width:1;" x1="28.8335" x2="693.0503" y1="553.2188" y2="553.2188"/><text fill="#000000" font-family="sans-serif" font-size="13" font-weight="bold" lengthAdjust="spacing" textLength="201.6904" x="35.8335" y="533.02">Associate the line-endpoint</text><text fill="#000000" font-family="sans-serif" font-size="13" lengthAdjust="spacing" textLength="197.6978" x="35.8335" y="548.1528">PUT /lines/11/endpoints/sip/66</text><polygon fill="#181818" points="39.8335,563.2188,29.8335,567.2188,39.8335,571.2188,35.8335,567.2188" style="stroke:#181818;stroke-width:1;"/><line style="stroke:#181818;stroke-width:1;" x1="33.8335" x2="698.0503" y1="567.2188" y2="567.2188"/><polygon fill="#181818" points="687.0503,622.6172,697.0503,626.6172,687.0503,630.6172,691.0503,626.6172" style="stroke:#181818;stroke-width:1;"/><line style="stroke:#181818;stroke-width:1;" x1="28.8335" x2="693.0503" y1="626.6172" y2="626.6172"/><text fill="#000000" font-family="sans-serif" font-size="13" font-weight="bold" lengthAdjust="spacing" textLength="301.6533" x="35.8335" y="591.2856">Get the device ID (autocreated by provd)</text><text fill="#000000" font-family="sans-serif" font-size="13" lengthAdjust="spacing" textLength="266.627" x="35.8335" y="606.4185">GET /devices?search=88:88:88:88:88:88</text><text fill="#000000" font-family="sans-serif" font-size="13" lengthAdjust="spacing" textLength="245.6035" x="35.8335" y="621.5513">or  GET /devices?search=192.168.88.</text><polygon fill="#181818" points="39.8335,651.75,29.8335,655.75,39.8335,659.75,35.8335,655.75" style="stroke:#181818;stroke-width:1;"/><line style="stroke:#181818;stroke-width:1;" x1="33.8335" x2="698.0503" y1="655.75" y2="655.75"/><text fill="#000000" font-family="sans-serif" font-size="13" lengthAdjust="spacing" textLength="118.7075" x="45.8335" y="650.6841">{"id": "888...", ...}</text><polygon fill="#181818" points="687.0503,696.0156,697.0503,700.0156,687.0503,704.0156,691.0503,700.0156" style="stroke:#181818;stroke-width:1;"/><line style="stroke:#181818;stroke-width:1;" x1="28.8335" x2="693.0503" y1="700.0156" y2="700.0156"/><text fill="#000000" font-family="sans-serif" font-size="13" font-weight="bold" lengthAdjust="spacing" textLength="183.7266" x="35.8335" y="679.8169">Associate the line-device</text><text fill="#000000" font-family="sans-serif" font-size="13" lengthAdjust="spacing" textLength="176.2808" x="35.8335" y="694.9497">PUT /lines/11/devices/8888</text><polygon fill="#181818" points="39.8335,710.0156,29.8335,714.0156,39.8335,718.0156,35.8335,714.0156" style="stroke:#181818;stroke-width:1;"/><line style="stroke:#181818;stroke-width:1;" x1="33.8335" x2="698.0503" y1="714.0156" y2="714.0156"/><polygon fill="#181818" points="687.0503,754.2813,697.0503,758.2813,687.0503,762.2813,691.0503,758.2813" style="stroke:#181818;stroke-width:1;"/><line style="stroke:#181818;stroke-width:1;" x1="28.8335" x2="693.0503" y1="758.2813" y2="758.2813"/><text fill="#000000" font-family="sans-serif" font-size="13" font-weight="bold" lengthAdjust="spacing" textLength="274.9297" x="35.8335" y="738.0825">Re-synchronize the device (optional):</text><text fill="#000000" font-family="sans-serif" font-size="13" lengthAdjust="spacing" textLength="203.1885" x="35.8335" y="753.2153">PUT /devices/8888/synchronize</text><polygon fill="#181818" points="39.8335,768.2813,29.8335,772.2813,39.8335,776.2813,35.8335,772.2813" style="stroke:#181818;stroke-width:1;"/><line style="stroke:#181818;stroke-width:1;" x1="33.8335" x2="698.0503" y1="772.2813" y2="772.2813"/><polygon fill="#181818" points="687.0503,827.6797,697.0503,831.6797,687.0503,835.6797,691.0503,831.6797" style="stroke:#181818;stroke-width:1;"/><line style="stroke:#181818;stroke-width:1;" x1="28.8335" x2="693.0503" y1="831.6797" y2="831.6797"/><text fill="#000000" font-family="sans-serif" font-size="13" font-weight="bold" lengthAdjust="spacing" textLength="151.5249" x="35.8335" y="796.3481">Create the voicemail</text><text fill="#000000" font-family="sans-serif" font-size="13" lengthAdjust="spacing" textLength="111.8076" x="35.8335" y="811.481">POST /voicemails</text><text fill="#000000" font-family="sans-serif" font-size="13" lengthAdjust="spacing" textLength="646.2168" x="35.8335" y="826.6138">{"name": "Alice's voicemail",  "number": "1234",  "context": "ctx-&lt;tenant slug&gt;-internal-&lt;uuid&gt;"}</text><polygon fill="#181818" points="39.8335,856.8125,29.8335,860.8125,39.8335,864.8125,35.8335,860.8125" style="stroke:#181818;stroke-width:1;"/><line style="stroke:#181818;stroke-width:1;" x1="33.8335" x2="698.0503" y1="860.8125" y2="860.8125"/><text fill="#000000" font-family="sans-serif" font-size="13" lengthAdjust="spacing" textLength="98.4902" x="45.8335" y="855.7466">{"id": 1010, ..}</text><polygon fill="#181818" points="687.0503,901.0781,697.0503,905.0781,687.0503,909.0781,691.0503,905.0781" style="stroke:#181818;stroke-width:1;"/><line style="stroke:#181818;stroke-width:1;" x1="28.8335" x2="693.0503" y1="905.0781" y2="905.0781"/><text fill="#000000" font-family="sans-serif" font-size="13" font-weight="bold" lengthAdjust="spacing" textLength="211.0024" x="35.8335" y="884.8794">Associate the user-voicemail</text><text fill="#000000" font-family="sans-serif" font-size="13" lengthAdjust="spacing" textLength="267.4458" x="35.8335" y="900.0122">PUT /users/44444444-.../voicemails/1010</text><polygon fill="#181818" points="39.8335,915.0781,29.8335,919.0781,39.8335,923.0781,35.8335,919.0781" style="stroke:#181818;stroke-width:1;"/><line style="stroke:#181818;stroke-width:1;" x1="33.8335" x2="698.0503" y1="919.0781" y2="919.0781"/><!--SRC=[hLHBQ-Cm4BxdLmowD8NAYht5k2Rh4dQNKbXewEEMYsAhZS2HWYI7Tal_UoKbJUIyICeQNwGPpVSOZGOrBndW0aefdgiS-kFYbsBKCFZB1UkJSJ4Imxk7Ho2rNUkHU4Ssqx1NWt90fNd5VSC45GPqtRmKcDkO4hJ6_QRXLO4-EhumO0inS5Wvl2DUsSDnV05H57rqEeEz7AW0YyI4vbA4N5QRdf1VEJfnykCINS3_OfWa1nWEj9ObToJDX84p1szIVVfoZSHnG9aaoHRaGHEWqKo5yjtQAt_cIXj1fyn9zHNMSW8rJgZBk5n-sAf2HsjpQBXUtuQdBmOahBTIkeb_I9eh_t0x12QgcRIDQVLukQU9vZChTfSmBojDJsnJ6wpTfH2KfEbHOcwOyTKhDdUnsz_GfOsHfTTOmVWDPahEg_C5uCqV2xX8rTUQKLLEVcPPtlv7GYg0NQdnLHB5QHPbMRJF49JPu2aTzhOiS7QPicH0RDdiA4Fk6TPlefmeAVW_5dhJbJDZPu3Mvtc050AGuEIfLsakRNHAUHtUezMcdvZMi9pfzH7h5Y3HJCTC1K_9Tz-IhSUk5_TSEuwUjqqfUuPkBOuuY2t3FW40]--></g></svg>