<svg xmlns="http://www.w3.org/2000/svg" xmlns:xlink="http://www.w3.org/1999/xlink" contentStyleType="text/css" height="382px" preserveAspectRatio="none" style="width:515px;height:382px;background:#FFFFFF;" version="1.1" viewBox="0 0 515 382" width="515px" zoomAndPan="magnify"><defs/><g><line style="stroke:#181818;stroke-width:0.5;stroke-dasharray:5.0,5.0;" x1="51" x2="51" y1="36.2969" y2="347.625"/><line style="stroke:#181818;stroke-width:0.5;stroke-dasharray:5.0,5.0;" x1="141.9961" x2="141.9961" y1="36.2969" y2="347.625"/><line style="stroke:#181818;stroke-width:0.5;stroke-dasharray:5.0,5.0;" x1="233.0186" x2="233.0186" y1="36.2969" y2="347.625"/><line style="stroke:#181818;stroke-width:0.5;stroke-dasharray:5.0,5.0;" x1="312.0146" x2="312.0146" y1="36.2969" y2="347.625"/><line style="stroke:#181818;stroke-width:0.5;stroke-dasharray:5.0,5.0;" x1="485.5796" x2="485.5796" y1="36.2969" y2="347.625"/><rect fill="#E2E2F0" height="30.2969" rx="2.5" ry="2.5" style="stroke:#181818;stroke-width:0.5;" width="92.9961" x="5" y="5"/><text fill="#000000" font-family="sans-serif" font-size="14" lengthAdjust="spacing" textLength="78.9961" x="12" y="24.9951">Phone1000</text><rect fill="#E2E2F0" height="30.2969" rx="2.5" ry="2.5" style="stroke:#181818;stroke-width:0.5;" width="92.9961" x="5" y="346.625"/><text fill="#000000" font-family="sans-serif" font-size="14" lengthAdjust="spacing" textLength="78.9961" x="12" y="366.6201">Phone1000</text><rect fill="#E2E2F0" height="30.2969" rx="2.5" ry="2.5" style="stroke:#181818;stroke-width:0.5;" width="69.0225" x="107.9961" y="5"/><text fill="#000000" font-family="sans-serif" font-size="14" lengthAdjust="spacing" textLength="55.0225" x="114.9961" y="24.9951">asterisk</text><rect fill="#E2E2F0" height="30.2969" rx="2.5" ry="2.5" style="stroke:#181818;stroke-width:0.5;" width="69.0225" x="107.9961" y="346.625"/><text fill="#000000" font-family="sans-serif" font-size="14" lengthAdjust="spacing" textLength="55.0225" x="114.9961" y="366.6201">asterisk</text><rect fill="#E2E2F0" height="30.2969" rx="2.5" ry="2.5" style="stroke:#181818;stroke-width:0.5;" width="92.9961" x="187.0186" y="5"/><text fill="#000000" font-family="sans-serif" font-size="14" lengthAdjust="spacing" textLength="78.9961" x="194.0186" y="24.9951">Phone1001</text><rect fill="#E2E2F0" height="30.2969" rx="2.5" ry="2.5" style="stroke:#181818;stroke-width:0.5;" width="92.9961" x="187.0186" y="346.625"/><text fill="#000000" font-family="sans-serif" font-size="14" lengthAdjust="spacing" textLength="78.9961" x="194.0186" y="366.6201">Phone1001</text><rect fill="#E2E2F0" height="30.2969" rx="2.5" ry="2.5" style="stroke:#181818;stroke-width:0.5;" width="45.9102" x="290.0146" y="5"/><text fill="#000000" font-family="sans-serif" font-size="14" lengthAdjust="spacing" textLength="31.9102" x="297.0146" y="24.9951">User</text><rect fill="#E2E2F0" height="30.2969" rx="2.5" ry="2.5" style="stroke:#181818;stroke-width:0.5;" width="45.9102" x="290.0146" y="346.625"/><text fill="#000000" font-family="sans-serif" font-size="14" lengthAdjust="spacing" textLength="31.9102" x="297.0146" y="366.6201">User</text><rect fill="#E2E2F0" height="30.2969" rx="2.5" ry="2.5" style="stroke:#181818;stroke-width:0.5;" width="46.9424" x="462.5796" y="5"/><text fill="#000000" font-family="sans-serif" font-size="14" lengthAdjust="spacing" textLength="32.9424" x="469.5796" y="24.9951">calld</text><rect fill="#E2E2F0" height="30.2969" rx="2.5" ry="2.5" style="stroke:#181818;stroke-width:0.5;" width="46.9424" x="462.5796" y="346.625"/><text fill="#000000" font-family="sans-serif" font-size="14" lengthAdjust="spacing" textLength="32.9424" x="469.5796" y="366.6201">calld</text><polygon fill="#181818" points="130.5073,63.4297,140.5073,67.4297,130.5073,71.4297,134.5073,67.4297" style="stroke:#181818;stroke-width:1;"/><line style="stroke:#181818;stroke-width:1;" x1="51.498" x2="136.5073" y1="67.4297" y2="67.4297"/><text fill="#000000" font-family="sans-serif" font-size="13" lengthAdjust="spacing" textLength="61.4834" x="58.498" y="62.3638">Call 1001</text><polygon fill="#181818" points="221.5166,92.5625,231.5166,96.5625,221.5166,100.5625,225.5166,96.5625" style="stroke:#181818;stroke-width:1;"/><line style="stroke:#181818;stroke-width:1;" x1="142.5073" x2="227.5166" y1="96.5625" y2="96.5625"/><text fill="#000000" font-family="sans-serif" font-size="13" lengthAdjust="spacing" textLength="33.084" x="149.5073" y="91.4966">1001</text><polygon fill="#181818" points="300.9697,121.6953,310.9697,125.6953,300.9697,129.6953,304.9697,125.6953" style="stroke:#181818;stroke-width:1;"/><line style="stroke:#181818;stroke-width:1;" x1="233.5166" x2="306.9697" y1="125.6953" y2="125.6953"/><text fill="#000000" font-family="sans-serif" font-size="13" lengthAdjust="spacing" textLength="53.7266" x="240.5166" y="120.6294">answers</text><polygon fill="#181818" points="474.0508,150.8281,484.0508,154.8281,474.0508,158.8281,478.0508,154.8281" style="stroke:#181818;stroke-width:1;"/><line style="stroke:#181818;stroke-width:1;" x1="142.5073" x2="480.0508" y1="154.8281" y2="154.8281"/><text fill="#000000" font-family="sans-serif" font-size="13" lengthAdjust="spacing" textLength="37.2417" x="149.5073" y="149.7622">Event</text><polygon fill="#181818" points="323.9697,179.9609,313.9697,183.9609,323.9697,187.9609,319.9697,183.9609" style="stroke:#181818;stroke-width:1;"/><line style="stroke:#181818;stroke-width:1;" x1="317.9697" x2="485.0508" y1="183.9609" y2="183.9609"/><text fill="#000000" font-family="sans-serif" font-size="13" lengthAdjust="spacing" textLength="37.2417" x="329.9697" y="178.895">Event</text><polygon fill="#181818" points="474.0508,209.0938,484.0508,213.0938,474.0508,217.0938,478.0508,213.0938" style="stroke:#181818;stroke-width:1;"/><line style="stroke:#181818;stroke-width:1;" x1="312.9697" x2="480.0508" y1="213.0938" y2="213.0938"/><text fill="#000000" font-family="sans-serif" font-size="13" lengthAdjust="spacing" textLength="149.0811" x="319.9697" y="208.0278">DELETE /calls/{call_id}</text><polygon fill="#181818" points="153.5073,238.2266,143.5073,242.2266,153.5073,246.2266,149.5073,242.2266" style="stroke:#181818;stroke-width:1;"/><line style="stroke:#181818;stroke-width:1;" x1="147.5073" x2="485.0508" y1="242.2266" y2="242.2266"/><text fill="#000000" font-family="sans-serif" font-size="13" lengthAdjust="spacing" textLength="50.7241" x="159.5073" y="237.1606">Hangup</text><polygon fill="#181818" points="474.0508,267.3594,484.0508,271.3594,474.0508,275.3594,478.0508,271.3594" style="stroke:#181818;stroke-width:1;"/><line style="stroke:#181818;stroke-width:1;" x1="142.5073" x2="480.0508" y1="271.3594" y2="271.3594"/><text fill="#000000" font-family="sans-serif" font-size="13" lengthAdjust="spacing" textLength="18.7573" x="149.5073" y="266.2935">OK</text><polygon fill="#181818" points="221.5166,296.4922,231.5166,300.4922,221.5166,304.4922,225.5166,300.4922" style="stroke:#181818;stroke-width:1;"/><line style="stroke:#181818;stroke-width:1;" x1="142.5073" x2="227.5166" y1="300.4922" y2="300.4922"/><text fill="#000000" font-family="sans-serif" font-size="13" lengthAdjust="spacing" textLength="24.6099" x="149.5073" y="295.4263">Bye</text><polygon fill="#181818" points="323.9697,325.625,313.9697,329.625,323.9697,333.625,319.9697,329.625" style="stroke:#181818;stroke-width:1;"/><line style="stroke:#181818;stroke-width:1;" x1="317.9697" x2="485.0508" y1="329.625" y2="329.625"/><text fill="#000000" font-family="sans-serif" font-size="13" lengthAdjust="spacing" textLength="24.813" x="329.9697" y="324.5591">204</text><!--SRC=[2yZ8pqirD30mKD2rKqWiBaajoYpEjb9mJip9KG0A6tB1n43o0L35XbOGkT3Yr2856rraySIyulBKec8KRSb0mrAi55pBKlDAu7em1H4gNLnzN4DS5VH1t6BzQX0LdvbIYp0KeTyZCI-zj02RTVxUkDpkL9cAxWmZ0nCk0000]--></g></svg>