<svg xmlns="http://www.w3.org/2000/svg" xmlns:xlink="http://www.w3.org/1999/xlink" contentStyleType="text/css" height="366px" preserveAspectRatio="none" style="width:497px;height:366px;background:#FFFFFF;" version="1.1" viewBox="0 0 497 366" width="497px" zoomAndPan="magnify"><defs/><g><line style="stroke:#181818;stroke-width:0.5;stroke-dasharray:5.0,5.0;" x1="27" x2="27" y1="36.2969" y2="331.4922"/><line style="stroke:#181818;stroke-width:0.5;stroke-dasharray:5.0,5.0;" x1="192.5981" x2="192.5981" y1="36.2969" y2="331.4922"/><line style="stroke:#181818;stroke-width:0.5;stroke-dasharray:5.0,5.0;" x1="379.9487" x2="379.9487" y1="36.2969" y2="331.4922"/><line style="stroke:#181818;stroke-width:0.5;stroke-dasharray:5.0,5.0;" x1="452.7632" x2="452.7632" y1="36.2969" y2="331.4922"/><rect fill="#E2E2F0" height="30.2969" rx="2.5" ry="2.5" style="stroke:#181818;stroke-width:0.5;" width="45.9102" x="5" y="5"/><text fill="#000000" font-family="sans-serif" font-size="14" lengthAdjust="spacing" textLength="31.9102" x="12" y="24.9951">User</text><rect fill="#E2E2F0" height="30.2969" rx="2.5" ry="2.5" style="stroke:#181818;stroke-width:0.5;" width="45.9102" x="5" y="330.4922"/><text fill="#000000" font-family="sans-serif" font-size="14" lengthAdjust="spacing" textLength="31.9102" x="12" y="350.4873">User</text><rect fill="#E2E2F0" height="30.2969" rx="2.5" ry="2.5" style="stroke:#181818;stroke-width:0.5;" width="97.6035" x="144.5981" y="5"/><text fill="#000000" font-family="sans-serif" font-size="14" lengthAdjust="spacing" textLength="83.6035" x="151.5981" y="24.9951">websocketd</text><rect fill="#E2E2F0" height="30.2969" rx="2.5" ry="2.5" style="stroke:#181818;stroke-width:0.5;" width="97.6035" x="144.5981" y="330.4922"/><text fill="#000000" font-family="sans-serif" font-size="14" lengthAdjust="spacing" textLength="83.6035" x="151.5981" y="350.4873">websocketd</text><rect fill="#E2E2F0" height="30.2969" rx="2.5" ry="2.5" style="stroke:#181818;stroke-width:0.5;" width="45.8145" x="357.9487" y="5"/><text fill="#000000" font-family="sans-serif" font-size="14" lengthAdjust="spacing" textLength="31.8145" x="364.9487" y="24.9951">auth</text><rect fill="#E2E2F0" height="30.2969" rx="2.5" ry="2.5" style="stroke:#181818;stroke-width:0.5;" width="45.8145" x="357.9487" y="330.4922"/><text fill="#000000" font-family="sans-serif" font-size="14" lengthAdjust="spacing" textLength="31.8145" x="364.9487" y="350.4873">auth</text><rect fill="#E2E2F0" height="30.2969" rx="2.5" ry="2.5" style="stroke:#181818;stroke-width:0.5;" width="78.0117" x="413.7632" y="5"/><text fill="#000000" font-family="sans-serif" font-size="14" lengthAdjust="spacing" textLength="64.0117" x="420.7632" y="24.9951">rabbitmq</text><rect fill="#E2E2F0" height="30.2969" rx="2.5" ry="2.5" style="stroke:#181818;stroke-width:0.5;" width="78.0117" x="413.7632" y="330.4922"/><text fill="#000000" font-family="sans-serif" font-size="14" lengthAdjust="spacing" textLength="64.0117" x="420.7632" y="350.4873">rabbitmq</text><polygon fill="#181818" points="181.3999,63.4297,191.3999,67.4297,181.3999,71.4297,185.3999,67.4297" style="stroke:#181818;stroke-width:1;"/><line style="stroke:#181818;stroke-width:1;" x1="27.9551" x2="187.3999" y1="67.4297" y2="67.4297"/><text fill="#000000" font-family="sans-serif" font-size="13" lengthAdjust="spacing" textLength="73.6899" x="34.9551" y="62.3638">Send token</text><polygon fill="#181818" points="368.856,92.5625,378.856,96.5625,368.856,100.5625,372.856,96.5625" style="stroke:#181818;stroke-width:1;"/><line style="stroke:#181818;stroke-width:1;" x1="193.3999" x2="374.856" y1="96.5625" y2="96.5625"/><text fill="#000000" font-family="sans-serif" font-size="13" lengthAdjust="spacing" textLength="94.3452" x="200.3999" y="91.4966">Validate token</text><polygon fill="#181818" points="204.3999,121.6953,194.3999,125.6953,204.3999,129.6953,200.3999,125.6953" style="stroke:#181818;stroke-width:1;"/><line style="stroke:#181818;stroke-width:1;stroke-dasharray:2.0,2.0;" x1="198.3999" x2="379.856" y1="125.6953" y2="125.6953"/><text fill="#000000" font-family="sans-serif" font-size="13" lengthAdjust="spacing" textLength="77.3462" x="210.3999" y="120.6294">send acl list</text><polygon fill="#181818" points="181.3999,150.8281,191.3999,154.8281,181.3999,158.8281,185.3999,154.8281" style="stroke:#181818;stroke-width:1;"/><line style="stroke:#181818;stroke-width:1;" x1="27.9551" x2="187.3999" y1="154.8281" y2="154.8281"/><text fill="#000000" font-family="sans-serif" font-size="13" lengthAdjust="spacing" textLength="105.0283" x="34.9551" y="149.7622">Subscribe event</text><polygon fill="#181818" points="181.3999,179.9609,191.3999,183.9609,181.3999,187.9609,185.3999,183.9609" style="stroke:#181818;stroke-width:1;"/><line style="stroke:#181818;stroke-width:1;" x1="27.9551" x2="187.3999" y1="183.9609" y2="183.9609"/><text fill="#000000" font-family="sans-serif" font-size="13" lengthAdjust="spacing" textLength="105.0283" x="34.9551" y="178.895">Subscribe event</text><polygon fill="#181818" points="181.3999,209.0938,191.3999,213.0938,181.3999,217.0938,185.3999,213.0938" style="stroke:#181818;stroke-width:1;"/><line style="stroke:#181818;stroke-width:1;" x1="27.9551" x2="187.3999" y1="213.0938" y2="213.0938"/><text fill="#000000" font-family="sans-serif" font-size="13" lengthAdjust="spacing" textLength="141.4448" x="34.9551" y="208.0278">Start events emission</text><polygon fill="#181818" points="204.3999,238.2266,194.3999,242.2266,204.3999,246.2266,200.3999,242.2266" style="stroke:#181818;stroke-width:1;"/><line style="stroke:#181818;stroke-width:1;" x1="198.3999" x2="451.769" y1="242.2266" y2="242.2266"/><text fill="#000000" font-family="sans-serif" font-size="13" lengthAdjust="spacing" textLength="92.6377" x="210.3999" y="237.1606">Receive event</text><line style="stroke:#181818;stroke-width:1;" x1="193.3999" x2="235.3999" y1="271.3594" y2="271.3594"/><line style="stroke:#181818;stroke-width:1;" x1="235.3999" x2="235.3999" y1="271.3594" y2="284.3594"/><line style="stroke:#181818;stroke-width:1;" x1="194.3999" x2="235.3999" y1="284.3594" y2="284.3594"/><polygon fill="#181818" points="204.3999,280.3594,194.3999,284.3594,204.3999,288.3594,200.3999,284.3594" style="stroke:#181818;stroke-width:1;"/><text fill="#000000" font-family="sans-serif" font-size="13" lengthAdjust="spacing" textLength="173.4561" x="200.3999" y="266.2935">Check ACL and filter event</text><polygon fill="#181818" points="38.9551,309.4922,28.9551,313.4922,38.9551,317.4922,34.9551,313.4922" style="stroke:#181818;stroke-width:1;"/><line style="stroke:#181818;stroke-width:1;" x1="32.9551" x2="192.3999" y1="313.4922" y2="313.4922"/><text fill="#000000" font-family="sans-serif" font-size="13" lengthAdjust="spacing" textLength="73.8994" x="44.9551" y="308.4263">Send event</text><!--SRC=[dP0n3eCm34NtdC8Nu08CbIhMJgtexYIki1A26XkuVecWQekOkle__-_lLYX3TOAPh0mkaFeQRfGyw10ecS-uG3XgLyCT8tjKsf0oX6fd8SK2NOJ8eiQqHocZ5PVP4j14IVzd5BEkkW3rBC93CYQZjQpzSuzVoH5FRyFVVjzSqv4BS6ukW4kL1qTTee-MoatRprRv1G00]--></g></svg>