<svg xmlns="http://www.w3.org/2000/svg" xmlns:xlink="http://www.w3.org/1999/xlink" contentStyleType="text/css" height="502px" preserveAspectRatio="none" style="width:1168px;height:502px;background:#FFFFFF;" version="1.1" viewBox="0 0 1168 502" width="1168px" zoomAndPan="magnify"><defs/><g><line style="stroke:#181818;stroke-width:0.5;stroke-dasharray:5.0,5.0;" x1="24" x2="24" y1="81.2969" y2="421.7578"/><line style="stroke:#181818;stroke-width:0.5;stroke-dasharray:5.0,5.0;" x1="70.667" x2="70.667" y1="81.2969" y2="421.7578"/><line style="stroke:#181818;stroke-width:0.5;stroke-dasharray:5.0,5.0;" x1="333.6245" x2="333.6245" y1="81.2969" y2="421.7578"/><line style="stroke:#181818;stroke-width:0.5;stroke-dasharray:5.0,5.0;" x1="452.0366" x2="452.0366" y1="81.2969" y2="421.7578"/><line style="stroke:#181818;stroke-width:0.5;stroke-dasharray:5.0,5.0;" x1="675.0576" x2="675.0576" y1="81.2969" y2="421.7578"/><line style="stroke:#181818;stroke-width:0.5;stroke-dasharray:5.0,5.0;" x1="882.9233" x2="882.9233" y1="81.2969" y2="421.7578"/><line style="stroke:#181818;stroke-width:0.5;stroke-dasharray:5.0,5.0;" x1="1002.9912" x2="1002.9912" y1="81.2969" y2="421.7578"/><line style="stroke:#181818;stroke-width:0.5;stroke-dasharray:5.0,5.0;" x1="1112.9346" x2="1112.9346" y1="81.2969" y2="421.7578"/><text fill="#000000" font-family="sans-serif" font-size="14" lengthAdjust="spacing" textLength="33.667" x="5" y="77.9951">Alice</text><ellipse cx="24.8335" cy="13.5" fill="#E2E2F0" rx="8" ry="8" style="stroke:#181818;stroke-width:0.5;"/><path d="M24.8335,21.5 L24.8335,48.5 M11.8335,29.5 L37.8335,29.5 M24.8335,48.5 L11.8335,63.5 M24.8335,48.5 L37.8335,63.5 " fill="none" style="stroke:#181818;stroke-width:0.5;"/><text fill="#000000" font-family="sans-serif" font-size="14" lengthAdjust="spacing" textLength="33.667" x="5" y="433.7529">Alice</text><ellipse cx="24.8335" cy="445.5547" fill="#E2E2F0" rx="8" ry="8" style="stroke:#181818;stroke-width:0.5;"/><path d="M24.8335,453.5547 L24.8335,480.5547 M11.8335,461.5547 L37.8335,461.5547 M24.8335,480.5547 L11.8335,495.5547 M24.8335,480.5547 L37.8335,495.5547 " fill="none" style="stroke:#181818;stroke-width:0.5;"/><text fill="#000000" font-family="sans-serif" font-size="14" lengthAdjust="spacing" textLength="27.0566" x="54.667" y="77.9951">Bob</text><ellipse cx="71.1953" cy="13.5" fill="#E2E2F0" rx="8" ry="8" style="stroke:#181818;stroke-width:0.5;"/><path d="M71.1953,21.5 L71.1953,48.5 M58.1953,29.5 L84.1953,29.5 M71.1953,48.5 L58.1953,63.5 M71.1953,48.5 L84.1953,63.5 " fill="none" style="stroke:#181818;stroke-width:0.5;"/><text fill="#000000" font-family="sans-serif" font-size="14" lengthAdjust="spacing" textLength="27.0566" x="54.667" y="433.7529">Bob</text><ellipse cx="71.1953" cy="445.5547" fill="#E2E2F0" rx="8" ry="8" style="stroke:#181818;stroke-width:0.5;"/><path d="M71.1953,453.5547 L71.1953,480.5547 M58.1953,461.5547 L84.1953,461.5547 M71.1953,480.5547 L58.1953,495.5547 M71.1953,480.5547 L84.1953,495.5547 " fill="none" style="stroke:#181818;stroke-width:0.5;"/><rect fill="#E2E2F0" height="30.2969" rx="2.5" ry="2.5" style="stroke:#181818;stroke-width:0.5;" width="85.9482" x="291.6245" y="50"/><text fill="#000000" font-family="sans-serif" font-size="14" lengthAdjust="spacing" textLength="71.9482" x="298.6245" y="69.9951">webhookd</text><rect fill="#E2E2F0" height="30.2969" rx="2.5" ry="2.5" style="stroke:#181818;stroke-width:0.5;" width="85.9482" x="291.6245" y="420.7578"/><text fill="#000000" font-family="sans-serif" font-size="14" lengthAdjust="spacing" textLength="71.9482" x="298.6245" y="440.7529">webhookd</text><rect fill="#E2E2F0" height="30.2969" rx="2.5" ry="2.5" style="stroke:#181818;stroke-width:0.5;" width="45.8145" x="430.0366" y="50"/><text fill="#000000" font-family="sans-serif" font-size="14" lengthAdjust="spacing" textLength="31.8145" x="437.0366" y="69.9951">auth</text><rect fill="#E2E2F0" height="30.2969" rx="2.5" ry="2.5" style="stroke:#181818;stroke-width:0.5;" width="45.8145" x="430.0366" y="420.7578"/><text fill="#000000" font-family="sans-serif" font-size="14" lengthAdjust="spacing" textLength="31.8145" x="437.0366" y="440.7529">auth</text><rect fill="#E2E2F0" height="30.2969" rx="2.5" ry="2.5" style="stroke:#181818;stroke-width:0.5;" width="39.7715" x="656.0576" y="50"/><text fill="#000000" font-family="sans-serif" font-size="14" lengthAdjust="spacing" textLength="25.7715" x="663.0576" y="69.9951">Bus</text><rect fill="#E2E2F0" height="30.2969" rx="2.5" ry="2.5" style="stroke:#181818;stroke-width:0.5;" width="39.7715" x="656.0576" y="420.7578"/><text fill="#000000" font-family="sans-serif" font-size="14" lengthAdjust="spacing" textLength="25.7715" x="663.0576" y="440.7529">Bus</text><rect fill="#E2E2F0" height="30.2969" rx="2.5" ry="2.5" style="stroke:#181818;stroke-width:0.5;" width="70.0205" x="847.9233" y="50"/><text fill="#000000" font-family="sans-serif" font-size="14" lengthAdjust="spacing" textLength="56.0205" x="854.9233" y="69.9951">Asterisk</text><rect fill="#E2E2F0" height="30.2969" rx="2.5" ry="2.5" style="stroke:#181818;stroke-width:0.5;" width="70.0205" x="847.9233" y="420.7578"/><text fill="#000000" font-family="sans-serif" font-size="14" lengthAdjust="spacing" textLength="56.0205" x="854.9233" y="440.7529">Asterisk</text><rect fill="#E2E2F0" height="30.2969" rx="2.5" ry="2.5" style="stroke:#181818;stroke-width:0.5;" width="98.9434" x="953.9912" y="50"/><text fill="#000000" font-family="sans-serif" font-size="14" lengthAdjust="spacing" textLength="84.9434" x="960.9912" y="69.9951">accent-calld</text><rect fill="#E2E2F0" height="30.2969" rx="2.5" ry="2.5" style="stroke:#181818;stroke-width:0.5;" width="98.9434" x="953.9912" y="420.7578"/><text fill="#000000" font-family="sans-serif" font-size="14" lengthAdjust="spacing" textLength="84.9434" x="960.9912" y="440.7529">accent-calld</text><rect fill="#E2E2F0" height="46.5938" rx="2.5" ry="2.5" style="stroke:#181818;stroke-width:0.5;" width="100.0439" x="1062.9346" y="33.7031"/><text fill="#000000" font-family="sans-serif" font-size="14" lengthAdjust="spacing" textLength="86.0439" x="1069.9346" y="53.6982">SMS Service</text><text fill="#000000" font-family="sans-serif" font-size="14" lengthAdjust="spacing" textLength="69.0225" x="1078.4453" y="69.9951">(external)</text><rect fill="#E2E2F0" height="46.5938" rx="2.5" ry="2.5" style="stroke:#181818;stroke-width:0.5;" width="100.0439" x="1062.9346" y="420.7578"/><text fill="#000000" font-family="sans-serif" font-size="14" lengthAdjust="spacing" textLength="86.0439" x="1069.9346" y="440.7529">SMS Service</text><text fill="#000000" font-family="sans-serif" font-size="14" lengthAdjust="spacing" textLength="69.0225" x="1078.4453" y="457.0498">(external)</text><polygon fill="#181818" points="322.5986,108.4297,332.5986,112.4297,322.5986,116.4297,326.5986,112.4297" style="stroke:#181818;stroke-width:1;"/><line style="stroke:#181818;stroke-width:1;" x1="24.8335" x2="328.5986" y1="112.4297" y2="112.4297"/><text fill="#000000" font-family="sans-serif" font-size="13" lengthAdjust="spacing" textLength="285.7651" x="31.8335" y="107.3638">Listen to 'user_voicemail_message_created'</text><polygon fill="#181818" points="440.9438,137.5625,450.9438,141.5625,440.9438,145.5625,444.9438,141.5625" style="stroke:#181818;stroke-width:1;"/><line style="stroke:#181818;stroke-width:1;" x1="334.5986" x2="446.9438" y1="141.5625" y2="141.5625"/><text fill="#000000" font-family="sans-serif" font-size="13" lengthAdjust="spacing" textLength="94.3452" x="341.5986" y="136.4966">Validate token</text><polygon fill="#181818" points="345.5986,166.6953,335.5986,170.6953,345.5986,174.6953,341.5986,170.6953" style="stroke:#181818;stroke-width:1;"/><line style="stroke:#181818;stroke-width:1;stroke-dasharray:2.0,2.0;" x1="339.5986" x2="451.9438" y1="170.6953" y2="170.6953"/><text fill="#000000" font-family="sans-serif" font-size="13" lengthAdjust="spacing" textLength="62.5498" x="351.5986" y="165.6294">Token OK</text><polygon fill="#181818" points="663.9434,195.8281,673.9434,199.8281,663.9434,203.8281,667.9434,199.8281" style="stroke:#181818;stroke-width:1;"/><line style="stroke:#181818;stroke-width:1;" x1="334.5986" x2="669.9434" y1="199.8281" y2="199.8281"/><text fill="#000000" font-family="sans-serif" font-size="13" lengthAdjust="spacing" textLength="310.6733" x="341.5986" y="194.7622">Subscribe to 'user_voicemail_message_created'</text><polygon fill="#181818" points="35.8335,224.9609,25.8335,228.9609,35.8335,232.9609,31.8335,228.9609" style="stroke:#181818;stroke-width:1;"/><line style="stroke:#181818;stroke-width:1;stroke-dasharray:2.0,2.0;" x1="29.8335" x2="333.5986" y1="228.9609" y2="228.9609"/><text fill="#000000" font-family="sans-serif" font-size="13" lengthAdjust="spacing" textLength="18.7573" x="41.8335" y="223.895">OK</text><polygon fill="#181818" points="870.9336,254.0938,880.9336,258.0938,870.9336,262.0938,874.9336,258.0938" style="stroke:#181818;stroke-width:1;"/><line style="stroke:#181818;stroke-width:1;" x1="71.1953" x2="876.9336" y1="258.0938" y2="258.0938"/><text fill="#000000" font-family="sans-serif" font-size="13" lengthAdjust="spacing" textLength="167.8447" x="78.1953" y="253.0278">Leave voicemail message</text><polygon fill="#181818" points="686.9434,283.2266,676.9434,287.2266,686.9434,291.2266,682.9434,287.2266" style="stroke:#181818;stroke-width:1;"/><line style="stroke:#181818;stroke-width:1;" x1="680.9434" x2="881.9336" y1="287.2266" y2="287.2266"/><text fill="#000000" font-family="sans-serif" font-size="13" lengthAdjust="spacing" textLength="182.9902" x="692.9434" y="282.1606">AMI event 'MessageWaiting'</text><polygon fill="#181818" points="991.4629,312.3594,1001.4629,316.3594,991.4629,320.3594,995.4629,316.3594" style="stroke:#181818;stroke-width:1;"/><line style="stroke:#181818;stroke-width:1;" x1="675.9434" x2="997.4629" y1="316.3594" y2="316.3594"/><text fill="#000000" font-family="sans-serif" font-size="13" lengthAdjust="spacing" textLength="154.2227" x="682.9434" y="311.2935">parse 'MessageWaiting'</text><polygon fill="#181818" points="686.9434,341.4922,676.9434,345.4922,686.9434,349.4922,682.9434,345.4922" style="stroke:#181818;stroke-width:1;"/><line style="stroke:#181818;stroke-width:1;" x1="680.9434" x2="1002.4629" y1="345.4922" y2="345.4922"/><text fill="#000000" font-family="sans-serif" font-size="13" lengthAdjust="spacing" textLength="303.5195" x="692.9434" y="340.4263">Send event 'user_voicemail_message_created'</text><polygon fill="#181818" points="345.5986,370.625,335.5986,374.625,345.5986,378.625,341.5986,374.625" style="stroke:#181818;stroke-width:1;"/><line style="stroke:#181818;stroke-width:1;" x1="339.5986" x2="674.9434" y1="374.625" y2="374.625"/><text fill="#000000" font-family="sans-serif" font-size="13" lengthAdjust="spacing" textLength="317.3447" x="351.5986" y="369.5591">Publish event 'user_voicemail_message_created'</text><polygon fill="#181818" points="1100.9565,399.7578,1110.9565,403.7578,1100.9565,407.7578,1104.9565,403.7578" style="stroke:#181818;stroke-width:1;"/><line style="stroke:#181818;stroke-width:1;" x1="334.5986" x2="1106.9565" y1="403.7578" y2="403.7578"/><text fill="#000000" font-family="sans-serif" font-size="13" lengthAdjust="spacing" textLength="126.1724" x="341.5986" y="398.6919">Make HTTP request</text><!--SRC=[bP3DJeGm4CVlVOe95_J02t0mOKyQ9Mu2qOi96SfaQUYssW_qyPtYiYlneDwQ_h_o6vJ1EgYqaYHmUUziByJo0SKDl5C_MZiD9Jme7yX0i917JwwRBLkEg7Ht9E_nG9rqX866NAoXL80nZ2KyeLO3YnoVo8Zq2SMclaq2FDvlmhleIsXYxwLJFVrpc_CBHfbQ1MEbneeXdF8Jyn3E1EScE3M9rN7Uh-exe9bCWBp-yZoZ2ieSSi5wicKe9Uk5HAs7h8HNT9v-khUs2n-POHtuZUuqU3dRFlPQ-V6l-U_7pPgwuN4ti_l5ND47SnlKrmnGuqHmsxPxSFGMoGVn2G00]--></g></svg>