<svg xmlns="http://www.w3.org/2000/svg" xmlns:xlink="http://www.w3.org/1999/xlink" contentStyleType="text/css" height="515px" preserveAspectRatio="none" style="width:1364px;height:515px;background:#FFFFFF;" version="1.1" viewBox="0 0 1364 515" width="1364px" zoomAndPan="magnify"><defs/><g><line style="stroke:#181818;stroke-width:0.5;stroke-dasharray:5.0,5.0;" x1="24" x2="24" y1="81.2969" y2="434.7578"/><line style="stroke:#181818;stroke-width:0.5;stroke-dasharray:5.0,5.0;" x1="127.9468" x2="127.9468" y1="81.2969" y2="434.7578"/><line style="stroke:#181818;stroke-width:0.5;stroke-dasharray:5.0,5.0;" x1="393.3784" x2="393.3784" y1="81.2969" y2="434.7578"/><line style="stroke:#181818;stroke-width:0.5;stroke-dasharray:5.0,5.0;" x1="465.1636" x2="465.1636" y1="81.2969" y2="434.7578"/><line style="stroke:#181818;stroke-width:0.5;stroke-dasharray:5.0,5.0;" x1="742.627" x2="742.627" y1="81.2969" y2="434.7578"/><line style="stroke:#181818;stroke-width:0.5;stroke-dasharray:5.0,5.0;" x1="1114.2617" x2="1114.2617" y1="81.2969" y2="434.7578"/><line style="stroke:#181818;stroke-width:0.5;stroke-dasharray:5.0,5.0;" x1="1309.0801" x2="1309.0801" y1="81.2969" y2="434.7578"/><text fill="#000000" font-family="sans-serif" font-size="14" lengthAdjust="spacing" textLength="33.667" x="5" y="77.9951">Alice</text><ellipse cx="24.8335" cy="13.5" fill="#E2E2F0" rx="8" ry="8" style="stroke:#181818;stroke-width:0.5;"/><path d="M24.8335,21.5 L24.8335,48.5 M11.8335,29.5 L37.8335,29.5 M24.8335,48.5 L11.8335,63.5 M24.8335,48.5 L37.8335,63.5 " fill="none" style="stroke:#181818;stroke-width:0.5;"/><text fill="#000000" font-family="sans-serif" font-size="14" lengthAdjust="spacing" textLength="33.667" x="5" y="446.7529">Alice</text><ellipse cx="24.8335" cy="458.5547" fill="#E2E2F0" rx="8" ry="8" style="stroke:#181818;stroke-width:0.5;"/><path d="M24.8335,466.5547 L24.8335,493.5547 M11.8335,474.5547 L37.8335,474.5547 M24.8335,493.5547 L11.8335,508.5547 M24.8335,493.5547 L37.8335,508.5547 " fill="none" style="stroke:#181818;stroke-width:0.5;"/><rect fill="#E2E2F0" height="30.2969" rx="2.5" ry="2.5" style="stroke:#181818;stroke-width:0.5;" width="70.0205" x="92.9468" y="50"/><text fill="#000000" font-family="sans-serif" font-size="14" lengthAdjust="spacing" textLength="56.0205" x="99.9468" y="69.9951">Asterisk</text><rect fill="#E2E2F0" height="30.2969" rx="2.5" ry="2.5" style="stroke:#181818;stroke-width:0.5;" width="70.0205" x="92.9468" y="433.7578"/><text fill="#000000" font-family="sans-serif" font-size="14" lengthAdjust="spacing" textLength="56.0205" x="99.9468" y="453.7529">Asterisk</text><rect fill="#E2E2F0" height="30.2969" rx="2.5" ry="2.5" style="stroke:#181818;stroke-width:0.5;" width="74.7852" x="356.3784" y="50"/><text fill="#000000" font-family="sans-serif" font-size="14" lengthAdjust="spacing" textLength="60.7852" x="363.3784" y="69.9951">postgres</text><rect fill="#E2E2F0" height="30.2969" rx="2.5" ry="2.5" style="stroke:#181818;stroke-width:0.5;" width="74.7852" x="356.3784" y="433.7578"/><text fill="#000000" font-family="sans-serif" font-size="14" lengthAdjust="spacing" textLength="60.7852" x="363.3784" y="453.7529">postgres</text><rect fill="#E2E2F0" height="30.2969" rx="2.5" ry="2.5" style="stroke:#181818;stroke-width:0.5;" width="48.9932" x="441.1636" y="50"/><text fill="#000000" font-family="sans-serif" font-size="14" lengthAdjust="spacing" textLength="34.9932" x="448.1636" y="69.9951">amid</text><rect fill="#E2E2F0" height="30.2969" rx="2.5" ry="2.5" style="stroke:#181818;stroke-width:0.5;" width="48.9932" x="441.1636" y="433.7578"/><text fill="#000000" font-family="sans-serif" font-size="14" lengthAdjust="spacing" textLength="34.9932" x="448.1636" y="453.7529">amid</text><rect fill="#E2E2F0" height="30.2969" rx="2.5" ry="2.5" style="stroke:#181818;stroke-width:0.5;" width="39.0537" x="723.627" y="50"/><text fill="#000000" font-family="sans-serif" font-size="14" lengthAdjust="spacing" textLength="25.0537" x="730.627" y="69.9951">bus</text><rect fill="#E2E2F0" height="30.2969" rx="2.5" ry="2.5" style="stroke:#181818;stroke-width:0.5;" width="39.0537" x="723.627" y="433.7578"/><text fill="#000000" font-family="sans-serif" font-size="14" lengthAdjust="spacing" textLength="25.0537" x="730.627" y="453.7529">bus</text><rect fill="#E2E2F0" height="30.2969" rx="2.5" ry="2.5" style="stroke:#181818;stroke-width:0.5;" width="75.2842" x="1077.2617" y="50"/><text fill="#000000" font-family="sans-serif" font-size="14" lengthAdjust="spacing" textLength="61.2842" x="1084.2617" y="69.9951">call_logd</text><rect fill="#E2E2F0" height="30.2969" rx="2.5" ry="2.5" style="stroke:#181818;stroke-width:0.5;" width="75.2842" x="1077.2617" y="433.7578"/><text fill="#000000" font-family="sans-serif" font-size="14" lengthAdjust="spacing" textLength="61.2842" x="1084.2617" y="453.7529">call_logd</text><rect fill="#E2E2F0" height="30.2969" rx="2.5" ry="2.5" style="stroke:#181818;stroke-width:0.5;" width="97.6035" x="1261.0801" y="50"/><text fill="#000000" font-family="sans-serif" font-size="14" lengthAdjust="spacing" textLength="83.6035" x="1268.0801" y="69.9951">websocketd</text><rect fill="#E2E2F0" height="30.2969" rx="2.5" ry="2.5" style="stroke:#181818;stroke-width:0.5;" width="97.6035" x="1261.0801" y="433.7578"/><text fill="#000000" font-family="sans-serif" font-size="14" lengthAdjust="spacing" textLength="83.6035" x="1268.0801" y="453.7529">websocketd</text><polygon fill="#181818" points="115.957,108.4297,125.957,112.4297,115.957,116.4297,119.957,112.4297" style="stroke:#181818;stroke-width:1;"/><line style="stroke:#181818;stroke-width:1;" x1="24.8335" x2="121.957" y1="112.4297" y2="112.4297"/><text fill="#000000" font-family="sans-serif" font-size="13" lengthAdjust="spacing" textLength="79.1235" x="31.8335" y="107.3638">Hangup Call</text><polygon fill="#181818" points="381.771,137.5625,391.771,141.5625,381.771,145.5625,385.771,141.5625" style="stroke:#181818;stroke-width:1;"/><line style="stroke:#181818;stroke-width:1;" x1="127.957" x2="387.771" y1="141.5625" y2="141.5625"/><text fill="#000000" font-family="sans-serif" font-size="13" lengthAdjust="spacing" textLength="241.814" x="134.957" y="136.4966">Store Channel Events Logging (CELs)</text><polygon fill="#181818" points="453.6602,166.6953,463.6602,170.6953,453.6602,174.6953,457.6602,170.6953" style="stroke:#181818;stroke-width:1;"/><line style="stroke:#181818;stroke-width:1;" x1="127.957" x2="459.6602" y1="170.6953" y2="170.6953"/><text fill="#000000" font-family="sans-serif" font-size="13" lengthAdjust="spacing" textLength="172.4722" x="134.957" y="165.6294">Push event:LINKEDID_END</text><polygon fill="#181818" points="731.1538,195.8281,741.1538,199.8281,731.1538,203.8281,735.1538,199.8281" style="stroke:#181818;stroke-width:1;"/><line style="stroke:#181818;stroke-width:1;" x1="465.6602" x2="737.1538" y1="199.8281" y2="199.8281"/><text fill="#000000" font-family="sans-serif" font-size="13" lengthAdjust="spacing" textLength="253.4937" x="472.6602" y="194.7622">Publish event:LINKEDID_END internally</text><polygon fill="#181818" points="1102.9038,224.9609,1112.9038,228.9609,1102.9038,232.9609,1106.9038,228.9609" style="stroke:#181818;stroke-width:1;"/><line style="stroke:#181818;stroke-width:1;" x1="743.1538" x2="1108.9038" y1="228.9609" y2="228.9609"/><text fill="#000000" font-family="sans-serif" font-size="13" lengthAdjust="spacing" textLength="201.1128" x="750.1538" y="223.895">Received event:LINKEDID_END</text><polygon fill="#181818" points="404.771,254.0938,394.771,258.0938,404.771,262.0938,400.771,258.0938" style="stroke:#181818;stroke-width:1;"/><line style="stroke:#181818;stroke-width:1;" x1="398.771" x2="1113.9038" y1="258.0938" y2="258.0938"/><text fill="#000000" font-family="sans-serif" font-size="13" lengthAdjust="spacing" textLength="408.0718" x="410.771" y="253.0278">Retrieve all CELs linked with LINKEDID_END through the CELID</text><line style="stroke:#181818;stroke-width:1;" x1="1114.9038" x2="1156.9038" y1="287.2266" y2="287.2266"/><line style="stroke:#181818;stroke-width:1;" x1="1156.9038" x2="1156.9038" y1="287.2266" y2="300.2266"/><line style="stroke:#181818;stroke-width:1;" x1="1115.9038" x2="1156.9038" y1="300.2266" y2="300.2266"/><polygon fill="#181818" points="1125.9038,296.2266,1115.9038,300.2266,1125.9038,304.2266,1121.9038,300.2266" style="stroke:#181818;stroke-width:1;"/><text fill="#000000" font-family="sans-serif" font-size="13" lengthAdjust="spacing" textLength="180.978" x="1121.9038" y="282.1606">Transforms CELs in Call Log</text><polygon fill="#181818" points="404.771,325.3594,394.771,329.3594,404.771,333.3594,400.771,329.3594" style="stroke:#181818;stroke-width:1;"/><line style="stroke:#181818;stroke-width:1;" x1="398.771" x2="1113.9038" y1="329.3594" y2="329.3594"/><text fill="#000000" font-family="sans-serif" font-size="13" lengthAdjust="spacing" textLength="90.6255" x="410.771" y="324.2935">Store Call Log</text><polygon fill="#181818" points="754.1538,354.4922,744.1538,358.4922,754.1538,362.4922,750.1538,358.4922" style="stroke:#181818;stroke-width:1;"/><line style="stroke:#181818;stroke-width:1;" x1="748.1538" x2="1113.9038" y1="358.4922" y2="358.4922"/><text fill="#000000" font-family="sans-serif" font-size="13" lengthAdjust="spacing" textLength="347.75" x="760.1538" y="353.4263">Publish call_logs_created event with the new Call Log</text><polygon fill="#181818" points="1297.8818,383.625,1307.8818,387.625,1297.8818,391.625,1301.8818,387.625" style="stroke:#181818;stroke-width:1;"/><line style="stroke:#181818;stroke-width:1;" x1="743.1538" x2="1303.8818" y1="387.625" y2="387.625"/><text fill="#000000" font-family="sans-serif" font-size="13" lengthAdjust="spacing" textLength="216.3027" x="750.1538" y="382.5591">Transfert call_logs_created event</text><polygon fill="#181818" points="35.8335,412.7578,25.8335,416.7578,35.8335,420.7578,31.8335,416.7578" style="stroke:#181818;stroke-width:1;"/><line style="stroke:#181818;stroke-width:1;" x1="29.8335" x2="1308.8818" y1="416.7578" y2="416.7578"/><text fill="#000000" font-family="sans-serif" font-size="13" lengthAdjust="spacing" textLength="208.5015" x="41.8335" y="411.6919">Receive call_logs_created event</text><!--SRC=[TP91ReCm44Ntd6AMxQ8NO54f0gIYegXAkqV6cPeHZXrvJ51k7vi4KYhOsBBdpP_lBmlfhOET9ed9kCBRE-pOeoFkKlWGHlLdo8JMoNGRYRDbhnno2j-X7o5hXJ6eeRYWyGoLLOgCWfUigFXrqIbET4pXg-SMCC9fLUu_YxpCwsAV9x4QgQRd23MQLZaW4nHDS7LD0XexP3ZKsgeWVa29TC7Zse0PMxxYWDvHm26K8Pe6JQOB4WFv5XQZVUjihzgmOoJBVvf_VFmuOVZNkXFV9ScCGSPqjdmyqbob5fbC5QwbG-6dnzxzHci6XwVE8wC16xQoGp-RG-Utf98dFVw9-3dcR3URRW00]--></g></svg>